<?xml version="1.0" encoding="utf-8"?>
<svg viewBox="18.2137 3.4855 470.4609 470.25" width="470.461" height="470.25" xmlns="http://www.w3.org/2000/svg">
  <defs>
    <clipPath id="9e6e56a0d8">
      <path d="M 300 57.742188 L 770.828125 57.742188 L 770.828125 527.992188 L 300 527.992188 L 300 57.742188 Z" clip-rule="nonzero"/>
      <path d="M 300 57.742188" clip-rule="nonzero"/>
    </clipPath>
    <clipPath id="a20f9cc143">
      <path d="M 461 305 L 717.164062 305 L 717.164062 461 L 461 461 L 461 305 Z" clip-rule="nonzero"/>
      <path d="M 461 305" clip-rule="nonzero"/>
    </clipPath>
    <clipPath id="9e302c3910">
      <path d="M 353.414062 98.535156 L 689 98.535156 L 689 478 L 353.414062 478 L 353.414062 98.535156 Z" clip-rule="nonzero"/>
      <path d="M 353.414062 98.535156" clip-rule="nonzero"/>
    </clipPath>
  </defs>
  <path fill="#070d29" d="M 473.448 238.637 C 473.448 360.098 374.96 458.555 253.46 458.555 C 131.956 458.555 33.468 360.098 33.468 238.637 C 33.468 117.172 131.956 18.715 253.46 18.715 C 374.944 18.715 473.448 117.172 473.448 238.637 Z" fill-opacity="1" fill-rule="nonzero" transform="matrix(1, 0, 0, 1, 5.684341886080802e-14, 0)"/>
  <path fill="#070d29" d="M 473.448 238.637" fill-opacity="1" fill-rule="nonzero" transform="matrix(1, 0, 0, 1, 5.684341886080802e-14, 0)"/>
  <g clip-path="url(#9e6e56a0d8)" transform="matrix(1, 0, 0, 1, -281.9112854003906, -54.256717681884766)">
    <path fill="#1e1916" d="M 535.355469 57.742188 C 405.65625 57.742188 300.125 163.238281 300.125 292.894531 C 300.125 422.5625 405.65625 528.046875 535.355469 528.046875 C 665.054688 528.046875 770.585938 422.550781 770.585938 292.894531 C 770.597656 163.238281 665.066406 57.742188 535.355469 57.742188 Z" fill-opacity="1" fill-rule="nonzero"/>
    <path fill="#1e1916" d="M 535.355469 526.640625" fill-opacity="1" fill-rule="nonzero"/>
    <path fill="#1e1916" d="M 535.355469 526.640625 C 406.429688 526.640625 301.546875 421.789062 301.546875 292.90625 C 301.546875 164.011719 406.429688 59.164062 535.355469 59.164062 C 664.28125 59.164062 769.164062 164.011719 769.164062 292.894531 C 769.175781 421.777344 664.28125 526.640625 535.355469 526.640625 Z" fill-opacity="1" fill-rule="nonzero"/>
  </g>
  <g clip-path="url(#a20f9cc143)" transform="matrix(1, 0, 0, 1, -281.9112854003906, -54.256717681884766)">
    <path d="M 647.890625 396.546875 C 659.265625 376.628906 665.769531 353.5625 665.769531 328.972656 C 665.769531 320.847656 665.054688 312.886719 663.695312 305.15625 C 658.183594 335.828125 641.902344 362.757812 618.902344 381.855469 C 605.597656 392.910156 585.785156 390.667969 575.375 376.847656 L 555.9375 351.054688 C 552.703125 346.761719 547.648438 344.242188 542.28125 344.242188 L 468.226562 344.242188 C 468.207031 344.242188 468.191406 344.246094 468.175781 344.246094 C 463.121094 344.277344 459.847656 349.617188 462.121094 354.152344 L 465.066406 360.027344 C 470.546875 370.960938 481.335938 378.226562 493.511719 379.1875 L 497.898438 379.535156 L 517.101562 381.050781 C 522.539062 381.480469 527.441406 384.492188 530.285156 389.152344 L 538.996094 403.417969 L 543.871094 411.40625 L 571.191406 456.160156 C 571.675781 456.960938 572.285156 457.65625 572.980469 458.238281 C 574.984375 459.917969 577.695312 460.613281 580.328125 459.964844 C 580.347656 459.960938 580.363281 459.953125 580.382812 459.949219 C 651.246094 442.433594 705.839844 383.5625 717.171875 310.363281 C 707.222656 347.914062 681.675781 379.105469 647.890625 396.546875 " fill-opacity="1" fill-rule="nonzero" fill="#2d3c42"/>
  </g>
  <g clip-path="url(#9e302c3910)" transform="matrix(1, 0, 0, 1, -281.9112854003906, -54.256717681884766)">
    <path fill="#5c785d" d="M 525.058594 392.351562 C 523.246094 389.375 520.089844 387.4375 516.621094 387.164062 L 493.03125 385.304688 C 478.808594 384.183594 465.996094 375.554688 459.59375 362.785156 L 456.800781 357.214844 C 454.816406 353.257812 454.769531 348.519531 456.960938 344.671875 C 459.222656 340.699219 463.296875 338.253906 467.820312 338.117188 L 468.226562 338.105469 L 491.9375 338.105469 C 484.203125 325.886719 470.277344 319.011719 455.855469 320.363281 L 431.21875 322.664062 C 420.667969 323.652344 411.183594 316.367188 409.238281 305.933594 C 407.800781 298.199219 407.046875 290.21875 407.046875 282.066406 C 407.046875 240.722656 426.378906 203.90625 456.480469 180.183594 C 426.660156 199.851562 403.449219 228.757812 390.925781 262.84375 C 402.207031 180.734375 472.527344 117.492188 557.609375 117.492188 C 610.273438 117.492188 657.28125 141.726562 688.136719 179.667969 C 655.347656 131.03125 599.859375 99.003906 536.890625 98.839844 C 436.097656 98.578125 353.613281 180.835938 353.460938 281.789062 C 353.410156 317.324219 363.472656 350.503906 380.90625 378.609375 C 381.277344 379.203125 381.636719 379.800781 382.011719 380.390625 L 406.433594 376.242188 C 417.339844 374.394531 426.320312 384.957031 422.609375 395.398438 C 422.507812 395.683594 422.441406 395.839844 422.441406 395.839844 C 438.164062 401.566406 435.511719 416.90625 435.511719 416.90625 C 449.394531 423.246094 443.675781 436.332031 443.675781 436.332031 C 448.585938 438.367188 450.308594 442.339844 450.75 443.640625 C 450.980469 444.304688 451.230469 444.957031 451.484375 445.617188 L 460.980469 470.019531 C 462.613281 474.214844 467.625 477.644531 472.121094 477.644531 C 477.796875 477.644531 481.722656 471.96875 479.730469 466.648438 L 475.285156 454.800781 L 469.355469 438.996094 C 468.941406 437.894531 469.695312 436.683594 470.894531 436.597656 C 471.679688 436.539062 472.394531 437.050781 472.695312 437.78125 L 480.488281 456.5625 L 486.253906 470.464844 C 488.238281 475.25 493.476562 477.996094 498.445312 476.542969 C 504.398438 474.804688 507.363281 468.128906 504.671875 462.535156 C 504.671875 462.53125 504.667969 462.527344 504.664062 462.523438 L 490.402344 433.011719 C 489.792969 431.746094 490.625 430.257812 492.023438 430.121094 C 492.832031 430.042969 493.609375 430.460938 493.996094 431.175781 L 511.351562 463.574219 L 513.503906 467.589844 C 515.625 471.550781 520.273438 473.617188 524.535156 472.203125 C 527.847656 471.105469 530.054688 468.332031 530.640625 465.191406 C 530.996094 463.277344 530.75 461.230469 529.777344 459.347656 L 516.195312 432.980469 C 515.597656 431.820312 516.039062 430.332031 517.242188 429.832031 C 518.308594 429.390625 519.503906 429.84375 520.027344 430.832031 L 535.378906 459.875 C 536.617188 462.222656 538.46875 464.039062 540.628906 465.242188 C 544.226562 467.242188 548.6875 467.523438 552.667969 465.640625 C 553.4375 465.28125 554.140625 464.84375 554.800781 464.367188 C 560.242188 460.40625 561.949219 452.785156 558.300781 446.804688 L 525.058594 392.351562 " fill-opacity="1" fill-rule="nonzero"/>
  </g>
  <path fill="#2d3c42" d="M 110.441 349.106 L 129.648 345.915 C 135.409 344.954 139.308 339.501 138.351 333.727 C 137.398 327.954 131.948 324.051 126.183 325.008 L 106.976 328.2 C 101.21 329.157 97.312 334.614 98.269 340.387 C 99.226 346.161 104.675 350.063 110.441 349.106" fill-opacity="1" fill-rule="nonzero" transform="matrix(1, 0, 0, 1, 5.684341886080802e-14, 0)"/>
  <path fill="#2d3c42" d="M 148.151 354.587 C 147.194 348.813 141.749 344.907 135.983 345.868 L 109.765 350.887 C 103.999 351.844 100.105 357.297 101.062 363.071 C 102.015 368.844 107.464 372.751 113.23 371.794 L 139.448 366.774 C 145.21 365.813 149.108 360.356 148.151 354.587" fill-opacity="1" fill-rule="nonzero" transform="matrix(1, 0, 0, 1, 5.684341886080802e-14, 0)"/>
  <path fill="#2d3c42" d="M 156.999 376.399 C 156.042 370.626 150.597 366.719 144.831 367.68 L 125.624 370.868 C 119.858 371.829 115.96 377.286 116.917 383.059 C 117.874 388.829 123.323 392.735 129.085 391.778 L 148.292 388.587 C 154.058 387.626 157.956 382.172 156.999 376.399" fill-opacity="1" fill-rule="nonzero" transform="matrix(1, 0, 0, 1, 5.684341886080802e-14, 0)"/>
  <path fill="#2d3c42" d="M 158.171 388.13 L 142.398 390.645 C 136.632 391.602 132.737 397.059 133.691 402.833 C 134.648 408.602 140.097 412.505 145.858 411.551 L 161.636 409.036 C 167.398 408.079 171.296 402.622 170.339 396.848 C 169.382 391.075 163.937 387.172 158.171 388.13" fill-opacity="1" fill-rule="nonzero" transform="matrix(1, 0, 0, 1, 5.684341886080802e-14, 0)"/>
  <path stroke-linecap="butt" fill="none" stroke-linejoin="miter" d="M 197.968 160.719 C 199.112 151.333 201.937 145.911 207.296 145.911 L 207.901 145.911 C 213.069 145.911 214.218 149.348 213.366 156.09 L 223.179 156.09 L 223.413 154.153 C 224.812 143.032 220.05 137.493 207.839 137.493 C 196.222 137.493 190.077 144.469 188.038 160.778 L 187.8 162.704 C 185.745 179.071 191.651 185.989 203.257 185.989 C 213.558 185.989 219.757 181.598 221.312 170.11 L 221.429 169.196 L 211.632 169.196 C 210.913 174.501 209.765 177.571 203.8 177.571 L 203.198 177.571 C 197.792 177.571 196.589 172.149 197.718 162.704 L 197.968 160.719 Z" stroke="#a6a6a6" stroke-width="2.798333" stroke-opacity="1" stroke-miterlimit="4" transform="matrix(1, 0, 0, 1, 5.684341886080802e-14, 0)"/>
  <path stroke-linecap="butt" fill="none" stroke-linejoin="miter" d="M 388.304 176.794" stroke="#a6a6a6" stroke-width="2.798333" stroke-opacity="1" stroke-miterlimit="4" transform="matrix(1, 0, 0, 1, 5.684341886080802e-14, 0)"/>
  <path stroke-linecap="butt" fill="none" stroke-linejoin="miter" d="M 388.304 176.794 L 392.272 146.704 L 396.854 146.704 C 404.437 146.704 406.05 151.45 404.905 160.778 L 404.671 162.704 C 403.405 172.692 400.218 176.794 392.093 176.794 L 388.304 176.794 Z" stroke="#a6a6a6" stroke-width="2.798333" stroke-opacity="1" stroke-miterlimit="4" transform="matrix(1, 0, 0, 1, 5.684341886080802e-14, 0)"/>
  <path stroke-linecap="butt" fill="none" stroke-linejoin="miter" d="M 414.835 160.778 C 416.894 144.235 410.812 138.27 397.323 138.27 L 383.601 138.27 L 377.476 185.212 L 391.976 185.212 C 405.507 185.212 412.499 179.497 414.601 162.704 L 414.835 160.778 Z" stroke="#a6a6a6" stroke-width="2.798333" stroke-opacity="1" stroke-miterlimit="4" transform="matrix(1, 0, 0, 1, 5.684341886080802e-14, 0)"/>
  <path stroke-linecap="butt" fill="none" stroke-linejoin="miter" d="M 347.987 185.329 L 360.565 185.329 L 374.581 138.27 L 365.136 138.27 L 355.569 171.973 L 353.94 138.27 L 341.128 138.27 L 331.077 171.915 L 329.991 138.27 L 320.487 138.27 L 322.233 185.329 L 335.765 185.329 L 346.3 150.008 L 347.987 185.329 Z" stroke="#a6a6a6" stroke-width="2.798333" stroke-opacity="1" stroke-miterlimit="4" transform="matrix(1, 0, 0, 1, 5.684341886080802e-14, 0)"/>
  <path stroke-linecap="butt" fill="none" stroke-linejoin="miter" d="M 289.136 177.571 C 283.112 177.571 282.159 172.149 283.351 162.704 L 283.601 160.778 C 284.804 151.333 287.272 145.911 293.222 145.911 L 293.823 145.911 C 299.847 145.911 300.804 151.333 299.597 160.778 L 299.362 162.704 C 298.159 172.149 295.69 177.571 289.741 177.571 L 289.136 177.571 Z" stroke="#a6a6a6" stroke-width="2.798333" stroke-opacity="1" stroke-miterlimit="4" transform="matrix(1, 0, 0, 1, 5.684341886080802e-14, 0)"/>
  <path stroke-linecap="butt" fill="none" stroke-linejoin="miter" d="M 293.765 137.493 C 281.558 137.493 275.71 144.469 273.667 160.778 L 273.433 162.704 C 271.374 179.071 276.972 185.989 289.194 185.989 C 301.405 185.989 307.253 179.012 309.296 162.704 L 309.53 160.778 C 311.585 144.411 305.987 137.493 293.765 137.493 Z" stroke="#a6a6a6" stroke-width="2.798333" stroke-opacity="1" stroke-miterlimit="4" transform="matrix(1, 0, 0, 1, 5.684341886080802e-14, 0)"/>
  <path stroke-linecap="butt" fill="none" stroke-linejoin="miter" d="M 242.55 159.942 L 244.358 146.704 L 250.382 146.704 C 253.026 146.704 256.39 147.778 255.671 153.079 L 255.554 153.977 C 254.894 159.09 251.335 159.942 248.69 159.942 L 242.55 159.942 Z" stroke="#a6a6a6" stroke-width="2.798333" stroke-opacity="1" stroke-miterlimit="4" transform="matrix(1, 0, 0, 1, 5.684341886080802e-14, 0)"/>
  <path stroke-linecap="butt" fill="none" stroke-linejoin="miter" d="M 241.538 168.36 L 246.886 168.36 L 251.042 185.212 L 261.269 185.212 L 256.273 167.157 C 260.667 165.54 264.28 161.926 265.366 154.227 L 265.542 152.833 C 267.042 141.282 259.886 138.27 251.526 138.27 L 235.69 138.27 L 229.562 185.212 L 239.304 185.212 L 241.538 168.36 Z" stroke="#a6a6a6" stroke-width="2.798333" stroke-opacity="1" stroke-miterlimit="4" transform="matrix(1, 0, 0, 1, 5.684341886080802e-14, 0)"/>
  <path stroke-linecap="butt" fill="none" stroke-linejoin="miter" d="M 176.14 185.88 L 170.015 232.817 L 179.757 232.817 L 182.343 213.087 L 198.046 213.087 L 199.132 204.653 L 183.429 204.653 L 184.808 194.313 L 203.526 194.313 L 204.612 185.88 L 176.14 185.88 Z" stroke="#a6a6a6" stroke-width="2.798333" stroke-opacity="1" stroke-miterlimit="4" transform="matrix(1, 0, 0, 1, 5.684341886080802e-14, 0)"/>
  <path stroke-linecap="butt" fill="none" stroke-linejoin="miter" d="M 404.933 185.88" stroke="#a6a6a6" stroke-width="2.798333" stroke-opacity="1" stroke-miterlimit="4" transform="matrix(1, 0, 0, 1, 5.684341886080802e-14, 0)"/>
  <path stroke-linecap="butt" fill="none" stroke-linejoin="miter" d="M 404.933 185.88 L 398.804 232.817 L 427.499 232.817 L 428.585 224.399 L 409.632 224.399 L 411.132 213.087 L 427.085 213.087 L 428.175 204.653 L 412.218 204.653 L 413.601 194.313 L 432.565 194.313 L 433.64 185.88 L 404.933 185.88 Z" stroke="#a6a6a6" stroke-width="2.798333" stroke-opacity="1" stroke-miterlimit="4" transform="matrix(1, 0, 0, 1, 5.684341886080802e-14, 0)"/>
  <path stroke-linecap="butt" fill="none" stroke-linejoin="miter" d="M 382.077 202.79 L 380.386 213.442 L 377.862 232.817 L 387.601 232.817 L 393.741 185.88 L 378.757 185.88 L 366.608 215.907 L 362.331 185.88 L 348.124 185.88 L 341.999 232.817 L 351.737 232.817 L 354.265 213.442 L 355.355 202.79 L 359.804 232.817 L 369.737 232.817 L 382.077 202.79 Z" stroke="#a6a6a6" stroke-width="2.798333" stroke-opacity="1" stroke-miterlimit="4" transform="matrix(1, 0, 0, 1, 5.684341886080802e-14, 0)"/>
  <path stroke-linecap="butt" fill="none" stroke-linejoin="miter" d="M 308.417 224.399 L 312.382 194.313 L 316.968 194.313 C 324.546 194.313 326.163 199.055 325.019 208.387 L 324.784 210.309 C 323.519 220.301 320.331 224.399 312.206 224.399 L 308.417 224.399 Z" stroke="#a6a6a6" stroke-width="2.798333" stroke-opacity="1" stroke-miterlimit="4" transform="matrix(1, 0, 0, 1, 5.684341886080802e-14, 0)"/>
  <path stroke-linecap="butt" fill="none" stroke-linejoin="miter" d="M 334.948 208.387 C 337.007 191.844 330.925 185.88 317.437 185.88 L 303.714 185.88 L 297.589 232.817 L 312.089 232.817 C 325.62 232.817 332.612 227.102 334.714 210.309 L 334.948 208.387 Z" stroke="#a6a6a6" stroke-width="2.798333" stroke-opacity="1" stroke-miterlimit="4" transform="matrix(1, 0, 0, 1, 5.684341886080802e-14, 0)"/>
  <path stroke-linecap="butt" fill="none" stroke-linejoin="miter" d="M 258.101 185.88 L 251.976 232.817 L 261.304 232.817 L 263.831 213.442 L 264.843 203.7 L 276.159 232.817 L 286.323 232.817 L 292.464 185.88 L 283.136 185.88 L 280.608 205.258 L 279.597 215.012 L 268.284 185.88 L 258.101 185.88 Z" stroke="#a6a6a6" stroke-width="2.798333" stroke-opacity="1" stroke-miterlimit="4" transform="matrix(1, 0, 0, 1, 5.684341886080802e-14, 0)"/>
  <path stroke-linecap="butt" fill="none" stroke-linejoin="miter" d="M 224.769 233.598 C 237.523 233.598 241.62 228.133 242.94 217.95 L 247.159 185.88 L 237.405 185.88 L 233.261 217.657 C 232.601 222.712 230.542 225.18 225.019 225.18 C 219.48 225.18 218.335 222.594 218.995 217.657 L 223.151 185.88 L 213.398 185.88 L 209.183 217.95 C 207.858 228.192 212.015 233.598 224.769 233.598 Z" stroke="#a6a6a6" stroke-width="2.798333" stroke-opacity="1" stroke-miterlimit="4" transform="matrix(1, 0, 0, 1, 5.684341886080802e-14, 0)"/>
</svg>