<?xml version="1.0" encoding="utf-8"?>
<svg viewBox="5.125 10.82 414.009 169.134" width="414.009" height="169.134" xmlns="http://www.w3.org/2000/svg">
  <defs>
    <clipPath id="ab922db68b">
      <path d="M 377.605469 150.742188 L 936.367188 150.742188 L 936.367188 380.863281 L 377.605469 380.863281 L 377.605469 150.742188 Z" clip-rule="nonzero"/>
      <path d="M 377.605469 150.742188" clip-rule="nonzero"/>
    </clipPath>
    <clipPath id="a3eb856bf0">
      <path d="M 426.355469 150.742188 L 887.617188 150.742188 C 914.539062 150.742188 936.367188 172.566406 936.367188 199.492188 L 936.367188 332.113281 C 936.367188 359.039062 914.539062 380.863281 887.617188 380.863281 L 426.355469 380.863281 C 399.429688 380.863281 377.605469 359.039062 377.605469 332.113281 L 377.605469 199.492188 C 377.605469 172.566406 399.429688 150.742188 426.355469 150.742188 Z" clip-rule="nonzero"/>
      <path d="M 426.355469 150.742188" clip-rule="nonzero"/>
    </clipPath>
    <clipPath id="6ebbc7cca7">
      <path d="M 452 273 L 581.882812 273 L 581.882812 352 L 452 352 L 452 273 Z" clip-rule="nonzero"/>
      <path d="M 452 273" clip-rule="nonzero"/>
    </clipPath>
    <clipPath id="4fcc140366">
      <path d="M 397.382812 168.488281 L 568 168.488281 L 568 360.488281 L 397.382812 360.488281 L 397.382812 168.488281 Z" clip-rule="nonzero"/>
      <path d="M 397.382812 168.488281" clip-rule="nonzero"/>
    </clipPath>
  </defs>
  <g clip-path="url(#ab922db68b)" transform="matrix(0.7278800010681151, 0, 0, 0.7401590347290038, -266.0775146484375, -101.91841888427734)" style="">
    <g clip-path="url(#a3eb856bf0)">
      <path fill="#a6a6a6" d="M 377.605469 150.742188 L 936.367188 150.742188 L 936.367188 380.863281 L 377.605469 380.863281 L 377.605469 150.742188 Z" fill-opacity="1" fill-rule="nonzero"/>
      <path fill="#a6a6a6" d="M 377.605469 150.742188" fill-opacity="1" fill-rule="nonzero"/>
    </g>
  </g>
  <g clip-path="url(#6ebbc7cca7)" transform="matrix(0.7278800010681151, 0, 0, 0.7401590347290038, -266.0775146484375, -101.91841888427734)" style="">
    <path fill="#070d29" d="M 546.746094 319.261719 C 552.519531 309.183594 555.816406 297.511719 555.816406 285.074219 C 555.816406 280.960938 555.453125 276.933594 554.761719 273.023438 C 551.96875 288.539062 543.710938 302.164062 532.046875 311.828125 C 525.296875 317.417969 515.246094 316.285156 509.964844 309.292969 L 500.109375 296.246094 C 498.46875 294.074219 495.902344 292.796875 493.179688 292.796875 L 455.617188 292.796875 C 455.609375 292.796875 455.601562 292.800781 455.59375 292.800781 C 453.03125 292.816406 451.367188 295.515625 452.519531 297.8125 L 454.015625 300.785156 C 456.796875 306.316406 462.269531 309.992188 468.441406 310.476562 L 470.667969 310.652344 L 480.410156 311.417969 C 483.167969 311.636719 485.652344 313.160156 487.097656 315.519531 L 491.515625 322.734375 L 493.988281 326.777344 L 507.84375 349.417969 C 508.089844 349.824219 508.398438 350.175781 508.753906 350.472656 C 509.765625 351.320312 511.144531 351.671875 512.476562 351.34375 C 512.488281 351.34375 512.496094 351.339844 512.507812 351.335938 C 548.449219 342.476562 576.140625 312.691406 581.886719 275.65625 C 576.839844 294.65625 563.882812 310.4375 546.746094 319.261719 " fill-opacity="1" fill-rule="nonzero"/>
  </g>
  <g clip-path="url(#4fcc140366)" transform="matrix(0.7278800010681151, 0, 0, 0.7401590347290038, -266.0775146484375, -101.91841888427734)" style="">
    <path fill="#406658" d="M 484.445312 317.136719 C 483.523438 315.632812 481.925781 314.652344 480.164062 314.511719 L 468.199219 313.570312 C 460.984375 313.003906 454.488281 308.640625 451.238281 302.179688 L 449.824219 299.363281 C 448.816406 297.359375 448.792969 294.960938 449.90625 293.015625 C 451.050781 291.003906 453.117188 289.769531 455.414062 289.699219 L 455.617188 289.695312 L 467.644531 289.695312 C 463.722656 283.511719 456.660156 280.03125 449.34375 280.714844 L 436.847656 281.882812 C 431.496094 282.382812 426.683594 278.695312 425.699219 273.414062 C 424.96875 269.503906 424.585938 265.464844 424.585938 261.339844 C 424.585938 240.425781 434.394531 221.796875 449.660156 209.796875 C 434.535156 219.746094 422.761719 234.371094 416.410156 251.617188 C 422.132812 210.074219 457.800781 178.078125 500.957031 178.078125 C 527.667969 178.078125 551.511719 190.339844 567.160156 209.535156 C 550.53125 184.929688 522.386719 168.726562 490.445312 168.644531 C 439.324219 168.511719 397.484375 210.125 397.410156 261.199219 C 397.382812 279.179688 402.484375 295.964844 411.328125 310.183594 C 411.515625 310.484375 411.699219 310.785156 411.890625 311.085938 L 424.277344 308.988281 C 429.808594 308.050781 434.363281 313.394531 432.480469 318.679688 C 432.429688 318.824219 432.398438 318.902344 432.398438 318.902344 C 440.371094 321.800781 439.023438 329.558594 439.023438 329.558594 C 446.066406 332.765625 443.167969 339.390625 443.167969 339.390625 C 445.65625 340.417969 446.53125 342.429688 446.753906 343.085938 C 446.871094 343.421875 446.996094 343.753906 447.125 344.085938 L 451.945312 356.429688 C 452.773438 358.554688 455.316406 360.289062 457.59375 360.289062 C 460.472656 360.289062 462.464844 357.417969 461.453125 354.726562 L 459.199219 348.730469 L 456.191406 340.738281 C 455.980469 340.179688 456.363281 339.566406 456.972656 339.523438 C 457.371094 339.492188 457.734375 339.753906 457.886719 340.121094 L 461.835938 349.625 L 464.761719 356.65625 C 465.769531 359.078125 468.425781 360.46875 470.945312 359.734375 C 473.964844 358.851562 475.46875 355.476562 474.105469 352.644531 C 474.105469 352.644531 474.101562 352.640625 474.101562 352.636719 L 466.867188 337.707031 C 466.558594 337.066406 466.980469 336.316406 467.691406 336.246094 C 468.101562 336.207031 468.496094 336.417969 468.6875 336.78125 L 477.492188 353.171875 L 478.585938 355.203125 C 479.660156 357.207031 482.019531 358.25 484.179688 357.535156 C 485.859375 356.980469 486.980469 355.578125 487.277344 353.988281 C 487.457031 353.019531 487.332031 351.984375 486.839844 351.03125 L 479.949219 337.691406 C 479.648438 337.105469 479.871094 336.351562 480.480469 336.101562 C 481.023438 335.875 481.628906 336.105469 481.894531 336.605469 L 489.679688 351.300781 C 490.308594 352.488281 491.246094 353.40625 492.34375 354.015625 C 494.167969 355.027344 496.429688 355.167969 498.449219 354.214844 C 498.839844 354.035156 499.195312 353.8125 499.53125 353.570312 C 502.289062 351.566406 503.15625 347.714844 501.304688 344.6875 L 484.445312 317.136719 " fill-opacity="1" fill-rule="nonzero"/>
  </g>
  <path fill="#070d29" d="M 37.546 136.938 L 44.637 135.742 C 46.764 135.383 48.205 133.339 47.852 131.179 C 47.497 129.017 45.487 127.554 43.357 127.912 L 36.266 129.109 C 34.139 129.467 32.701 131.509 33.053 133.671 C 33.406 135.834 35.419 137.294 37.546 136.938" fill-opacity="1" fill-rule="nonzero" style="" transform="matrix(0.9999999999999999, 0, 0, 0.9999999999999999, -7.105427357601002e-15, -7.105427357601002e-15)"/>
  <path fill="#070d29" d="M 51.469 138.989 C 51.116 136.826 49.104 135.366 46.977 135.725 L 37.298 137.604 C 35.168 137.962 33.73 140.003 34.082 142.166 C 34.435 144.329 36.448 145.791 38.575 145.433 L 48.256 143.554 C 50.383 143.192 51.822 141.151 51.469 138.989" fill-opacity="1" fill-rule="nonzero" style="" transform="matrix(0.9999999999999999, 0, 0, 0.9999999999999999, -7.105427357601002e-15, -7.105427357601002e-15)"/>
  <path fill="#070d29" d="M 54.736 147.156 C 54.384 144.994 52.37 143.533 50.244 143.892 L 43.153 145.086 C 41.023 145.444 39.584 147.489 39.937 149.651 C 40.289 151.811 42.302 153.274 44.429 152.915 L 51.52 151.722 C 53.65 151.36 55.088 149.319 54.736 147.156" fill-opacity="1" fill-rule="nonzero" style="" transform="matrix(0.9999999999999999, 0, 0, 0.9999999999999999, -7.105427357601002e-15, -7.105427357601002e-15)"/>
  <path fill="#070d29" d="M 55.168 151.551 L 49.345 152.491 C 47.216 152.849 45.777 154.893 46.13 157.056 C 46.482 159.216 48.495 160.678 50.622 160.32 L 56.448 159.378 C 58.575 159.019 60.013 156.975 59.661 154.815 C 59.308 152.653 57.295 151.189 55.168 151.551" fill-opacity="1" fill-rule="nonzero" style="" transform="matrix(0.9999999999999999, 0, 0, 0.9999999999999999, -7.105427357601002e-15, -7.105427357601002e-15)"/>
  <path stroke-linecap="butt" fill="none" stroke-linejoin="miter" d="M 129.375 81.022 C 130.208 74.075 132.261 70.061 136.165 70.061 L 136.603 70.061 C 140.368 70.061 141.2 72.605 140.581 77.595 L 147.726 77.595 L 147.896 76.162 C 148.911 67.93 145.448 63.831 136.56 63.831 C 128.101 63.831 123.631 68.994 122.144 81.065 L 121.974 82.491 C 120.476 94.605 124.775 99.725 133.225 99.725 C 140.72 99.725 145.232 96.472 146.367 87.97 L 146.452 87.296 L 139.318 87.296 C 138.795 91.223 137.962 93.495 133.62 93.495 L 133.183 93.495 C 129.247 93.495 128.368 89.482 129.193 82.491 L 129.375 81.022 Z" stroke="#070d29" stroke-width="2.798333" stroke-opacity="1" stroke-miterlimit="4" style="" transform="matrix(0.9999999999999999, 0, 0, 0.9999999999999999, -7.105427357601002e-15, -7.105427357601002e-15)"/>
  <path stroke-linecap="butt" fill="none" stroke-linejoin="miter" d="M 267.917 92.92" stroke="#070d29" stroke-width="2.798333" stroke-opacity="1" stroke-miterlimit="4" style="" transform="matrix(0.9999999999999999, 0, 0, 0.9999999999999999, -7.105427357601002e-15, -7.105427357601002e-15)"/>
  <path stroke-linecap="butt" fill="none" stroke-linejoin="miter" d="M 267.917 92.92 L 270.803 70.648 L 274.141 70.648 C 279.657 70.648 280.834 74.161 280.001 81.065 L 279.827 82.491 C 278.909 89.884 276.589 92.92 270.675 92.92 L 267.917 92.92 Z" stroke="#070d29" stroke-width="2.798333" stroke-opacity="1" stroke-miterlimit="4" style="" transform="matrix(0.9999999999999999, 0, 0, 0.9999999999999999, -7.105427357601002e-15, -7.105427357601002e-15)"/>
  <path stroke-linecap="butt" fill="none" stroke-linejoin="miter" d="M 287.228 81.065 C 288.727 68.821 284.3 64.406 274.482 64.406 L 264.494 64.406 L 260.035 99.15 L 270.59 99.15 C 280.439 99.15 285.528 94.92 287.058 82.491 L 287.228 81.065 Z" stroke="#070d29" stroke-width="2.798333" stroke-opacity="1" stroke-miterlimit="4" style="" transform="matrix(0.9999999999999999, 0, 0, 0.9999999999999999, -7.105427357601002e-15, -7.105427357601002e-15)"/>
  <path stroke-linecap="butt" fill="none" stroke-linejoin="miter" d="M 238.572 99.237 L 247.724 99.237 L 257.925 64.406 L 251.05 64.406 L 244.09 89.351 L 242.902 64.406 L 233.578 64.406 L 226.262 89.308 L 225.472 64.406 L 218.552 64.406 L 219.826 99.237 L 229.675 99.237 L 237.34 73.094 L 238.572 99.237 Z" stroke="#070d29" stroke-width="2.798333" stroke-opacity="1" stroke-miterlimit="4" style="" transform="matrix(0.9999999999999999, 0, 0, 0.9999999999999999, -7.105427357601002e-15, -7.105427357601002e-15)"/>
  <path stroke-linecap="butt" fill="none" stroke-linejoin="miter" d="M 195.734 93.495 C 191.35 93.495 190.654 89.482 191.521 82.491 L 191.703 81.065 C 192.578 74.075 194.376 70.061 198.709 70.061 L 199.147 70.061 C 203.531 70.061 204.224 74.075 203.349 81.065 L 203.178 82.491 C 202.3 89.482 200.503 93.495 196.173 93.495 L 195.734 93.495 Z" stroke="#070d29" stroke-width="2.798333" stroke-opacity="1" stroke-miterlimit="4" style="" transform="matrix(0.9999999999999999, 0, 0, 0.9999999999999999, -7.105427357601002e-15, -7.105427357601002e-15)"/>
  <path stroke-linecap="butt" fill="none" stroke-linejoin="miter" d="M 199.104 63.831 C 190.216 63.831 185.959 68.994 184.475 81.065 L 184.302 82.491 C 182.806 94.605 186.881 99.725 195.777 99.725 C 204.663 99.725 208.919 94.561 210.406 82.491 L 210.577 81.065 C 212.075 68.951 208.001 63.831 199.104 63.831 Z" stroke="#070d29" stroke-width="2.798333" stroke-opacity="1" stroke-miterlimit="4" style="" transform="matrix(0.9999999999999999, 0, 0, 0.9999999999999999, -7.105427357601002e-15, -7.105427357601002e-15)"/>
  <path stroke-linecap="butt" fill="none" stroke-linejoin="miter" d="M 161.825 80.447 L 163.139 70.648 L 167.523 70.648 C 169.449 70.648 171.899 71.443 171.373 75.367 L 171.288 76.032 C 170.807 79.816 168.22 80.447 166.295 80.447 L 161.825 80.447 Z" stroke="#070d29" stroke-width="2.798333" stroke-opacity="1" stroke-miterlimit="4" style="" transform="matrix(0.9999999999999999, 0, 0, 0.9999999999999999, -7.105427357601002e-15, -7.105427357601002e-15)"/>
  <path stroke-linecap="butt" fill="none" stroke-linejoin="miter" d="M 161.086 86.677 L 164.979 86.677 L 168.007 99.15 L 175.448 99.15 L 171.814 85.784 C 175.01 84.59 177.64 81.912 178.433 76.217 L 178.561 75.182 C 179.65 66.635 174.444 64.406 168.36 64.406 L 156.83 64.406 L 152.372 99.15 L 159.463 99.15 L 161.086 86.677 Z" stroke="#070d29" stroke-width="2.798333" stroke-opacity="1" stroke-miterlimit="4" style="" transform="matrix(0.9999999999999999, 0, 0, 0.9999999999999999, -7.105427357601002e-15, -7.105427357601002e-15)"/>
  <path stroke-linecap="butt" fill="none" stroke-linejoin="miter" d="M 173.19 111.871 L 168.732 146.612 L 175.82 146.612 L 177.703 132.009 L 189.135 132.009 L 189.926 125.766 L 178.495 125.766 L 179.499 118.114 L 193.124 118.114 L 193.915 111.871 L 173.19 111.871 Z" stroke="#070d29" stroke-width="2.798333" stroke-opacity="1" stroke-miterlimit="4" style="" transform="matrix(0.9999999999999999, 0, 0, 0.9999999999999999, -7.105427357601002e-15, -7.105427357601002e-15)"/>
  <path stroke-linecap="butt" fill="none" stroke-linejoin="miter" d="M 339.721 111.871" stroke="#070d29" stroke-width="2.798333" stroke-opacity="1" stroke-miterlimit="4" style="" transform="matrix(0.9999999999999999, 0, 0, 0.9999999999999999, -7.105427357601002e-15, -7.105427357601002e-15)"/>
  <path stroke-linecap="butt" fill="none" stroke-linejoin="miter" d="M 339.721 111.871 L 335.263 146.612 L 356.147 146.612 L 356.937 140.382 L 343.145 140.382 L 344.234 132.009 L 355.848 132.009 L 356.639 125.766 L 345.026 125.766 L 346.03 118.114 L 359.837 118.114 L 360.616 111.871 L 339.721 111.871 Z" stroke="#070d29" stroke-width="2.798333" stroke-opacity="1" stroke-miterlimit="4" style="" transform="matrix(0.9999999999999999, 0, 0, 0.9999999999999999, -7.105427357601002e-15, -7.105427357601002e-15)"/>
  <path stroke-linecap="butt" fill="none" stroke-linejoin="miter" d="M 323.088 124.388 L 321.856 132.27 L 320.017 146.612 L 327.108 146.612 L 331.578 111.871 L 320.671 111.871 L 311.826 134.096 L 308.715 111.871 L 298.374 111.871 L 293.913 146.612 L 301.004 146.612 L 302.843 132.27 L 303.634 124.388 L 306.875 146.612 L 314.103 146.612 L 323.088 124.388 Z" stroke="#070d29" stroke-width="2.798333" stroke-opacity="1" stroke-miterlimit="4" style="" transform="matrix(0.9999999999999999, 0, 0, 0.9999999999999999, -7.105427357601002e-15, -7.105427357601002e-15)"/>
  <path stroke-linecap="butt" fill="none" stroke-linejoin="miter" d="M 269.469 140.382 L 272.358 118.114 L 275.694 118.114 C 281.212 118.114 282.389 121.624 281.553 128.531 L 281.383 129.954 C 280.464 137.349 278.144 140.382 272.23 140.382 L 269.469 140.382 Z" stroke="#070d29" stroke-width="2.798333" stroke-opacity="1" stroke-miterlimit="4" style="" transform="matrix(0.9999999999999999, 0, 0, 0.9999999999999999, -7.105427357601002e-15, -7.105427357601002e-15)"/>
  <path stroke-linecap="butt" fill="none" stroke-linejoin="miter" d="M 288.784 128.531 C 290.28 116.287 285.853 111.871 276.037 111.871 L 266.049 111.871 L 261.588 146.612 L 272.145 146.612 C 281.994 146.612 287.083 142.383 288.613 129.954 L 288.784 128.531 Z" stroke="#070d29" stroke-width="2.798333" stroke-opacity="1" stroke-miterlimit="4" style="" transform="matrix(0.9999999999999999, 0, 0, 0.9999999999999999, -7.105427357601002e-15, -7.105427357601002e-15)"/>
  <path stroke-linecap="butt" fill="none" stroke-linejoin="miter" d="M 232.848 111.871 L 228.386 146.612 L 235.179 146.612 L 237.019 132.27 L 237.755 125.061 L 245.989 146.612 L 253.391 146.612 L 257.86 111.871 L 251.07 111.871 L 249.231 126.215 L 248.491 133.435 L 240.257 111.871 L 232.848 111.871 Z" stroke="#070d29" stroke-width="2.798333" stroke-opacity="1" stroke-miterlimit="4" style="" transform="matrix(0.9999999999999999, 0, 0, 0.9999999999999999, -7.105427357601002e-15, -7.105427357601002e-15)"/>
  <path stroke-linecap="butt" fill="none" stroke-linejoin="miter" d="M 208.586 147.191 C 217.866 147.191 220.852 143.146 221.813 135.608 L 224.881 111.871 L 217.781 111.871 L 214.767 135.392 C 214.284 139.133 212.789 140.96 208.768 140.96 C 204.736 140.96 203.901 139.046 204.384 135.392 L 207.409 111.871 L 200.309 111.871 L 197.238 135.608 C 196.277 143.189 199.303 147.191 208.586 147.191 Z" stroke="#070d29" stroke-width="2.798333" stroke-opacity="1" stroke-miterlimit="4" style="" transform="matrix(0.9999999999999999, 0, 0, 0.9999999999999999, -7.105427357601002e-15, -7.105427357601002e-15)"/>
</svg>