<svg xmlns="http://www.w3.org/2000/svg" xmlns:xlink="http://www.w3.org/1999/xlink" width="1366" zoomAndPan="magnify" viewBox="0 0 1024.5 576" height="768" preserveAspectRatio="xMidYMid meet" version="1.0"><defs><g/><clipPath id="6f572d42e0"><path d="M 359.171875 69.46875 L 771.683594 69.46875 L 771.683594 481.980469 L 359.171875 481.980469 Z M 359.171875 69.46875 " clip-rule="nonzero"/></clipPath><clipPath id="82e6196993"><path d="M 565.425781 69.46875 C 451.515625 69.46875 359.171875 161.8125 359.171875 275.726562 C 359.171875 389.636719 451.515625 481.980469 565.425781 481.980469 C 679.339844 481.980469 771.683594 389.636719 771.683594 275.726562 C 771.683594 161.8125 679.339844 69.46875 565.425781 69.46875 Z M 565.425781 69.46875 " clip-rule="nonzero"/></clipPath><linearGradient x1="0.00000463668" gradientTransform="matrix(0.825024, 0, 0, 0.825024, 359.171019, 69.468673)" y1="0" x2="499.999967" gradientUnits="userSpaceOnUse" y2="0" id="8b668d73d5"><stop stop-opacity="1" stop-color="rgb(0%, 0%, 0%)" offset="0"/><stop stop-opacity="1" stop-color="rgb(0.175476%, 0.175476%, 0.175476%)" offset="0.0078125"/><stop stop-opacity="1" stop-color="rgb(0.526428%, 0.526428%, 0.526428%)" offset="0.015625"/><stop stop-opacity="1" stop-color="rgb(0.878906%, 0.878906%, 0.878906%)" offset="0.0234375"/><stop stop-opacity="1" stop-color="rgb(1.231384%, 1.231384%, 1.231384%)" offset="0.03125"/><stop stop-opacity="1" stop-color="rgb(1.583862%, 1.583862%, 1.583862%)" offset="0.0390625"/><stop stop-opacity="1" stop-color="rgb(1.93634%, 1.93634%, 1.93634%)" offset="0.046875"/><stop stop-opacity="1" stop-color="rgb(2.288818%, 2.288818%, 2.288818%)" offset="0.0546875"/><stop stop-opacity="1" stop-color="rgb(2.641296%, 2.641296%, 2.641296%)" offset="0.0625"/><stop stop-opacity="1" stop-color="rgb(2.993774%, 2.993774%, 2.993774%)" offset="0.0703125"/><stop stop-opacity="1" stop-color="rgb(3.346252%, 3.346252%, 3.346252%)" offset="0.078125"/><stop stop-opacity="1" stop-color="rgb(3.69873%, 3.69873%, 3.69873%)" offset="0.0859375"/><stop stop-opacity="1" stop-color="rgb(4.051208%, 4.051208%, 4.051208%)" offset="0.09375"/><stop stop-opacity="1" stop-color="rgb(4.402161%, 4.402161%, 4.402161%)" offset="0.101562"/><stop stop-opacity="1" stop-color="rgb(4.754639%, 4.754639%, 4.754639%)" offset="0.109375"/><stop stop-opacity="1" stop-color="rgb(5.107117%, 5.107117%, 5.107117%)" offset="0.117188"/><stop stop-opacity="1" stop-color="rgb(5.459595%, 5.459595%, 5.459595%)" offset="0.125"/><stop stop-opacity="1" stop-color="rgb(5.812073%, 5.812073%, 5.812073%)" offset="0.132812"/><stop stop-opacity="1" stop-color="rgb(6.164551%, 6.164551%, 6.164551%)" offset="0.140625"/><stop stop-opacity="1" stop-color="rgb(6.517029%, 6.517029%, 6.517029%)" offset="0.148438"/><stop stop-opacity="1" stop-color="rgb(6.869507%, 6.869507%, 6.869507%)" offset="0.15625"/><stop stop-opacity="1" stop-color="rgb(7.221985%, 7.221985%, 7.221985%)" offset="0.164062"/><stop stop-opacity="1" stop-color="rgb(7.574463%, 7.574463%, 7.574463%)" offset="0.171875"/><stop stop-opacity="1" stop-color="rgb(7.926941%, 7.926941%, 7.926941%)" offset="0.179688"/><stop stop-opacity="1" stop-color="rgb(8.277893%, 8.277893%, 8.277893%)" offset="0.1875"/><stop stop-opacity="1" stop-color="rgb(8.630371%, 8.630371%, 8.630371%)" offset="0.195312"/><stop stop-opacity="1" stop-color="rgb(8.982849%, 8.982849%, 8.982849%)" offset="0.203125"/><stop stop-opacity="1" stop-color="rgb(9.335327%, 9.335327%, 9.335327%)" offset="0.210938"/><stop stop-opacity="1" stop-color="rgb(9.687805%, 9.687805%, 9.687805%)" offset="0.21875"/><stop stop-opacity="1" stop-color="rgb(10.040283%, 10.040283%, 10.040283%)" offset="0.226563"/><stop stop-opacity="1" stop-color="rgb(10.392761%, 10.392761%, 10.392761%)" offset="0.234375"/><stop stop-opacity="1" stop-color="rgb(10.745239%, 10.745239%, 10.745239%)" offset="0.242188"/><stop stop-opacity="1" stop-color="rgb(11.097717%, 11.097717%, 11.097717%)" offset="0.25"/><stop stop-opacity="1" stop-color="rgb(11.450195%, 11.450195%, 11.450195%)" offset="0.257812"/><stop stop-opacity="1" stop-color="rgb(11.802673%, 11.802673%, 11.802673%)" offset="0.265625"/><stop stop-opacity="1" stop-color="rgb(12.155151%, 12.155151%, 12.155151%)" offset="0.273438"/><stop stop-opacity="1" stop-color="rgb(12.506104%, 12.506104%, 12.506104%)" offset="0.28125"/><stop stop-opacity="1" stop-color="rgb(12.858582%, 12.858582%, 12.858582%)" offset="0.289062"/><stop stop-opacity="1" stop-color="rgb(13.21106%, 13.21106%, 13.21106%)" offset="0.296875"/><stop stop-opacity="1" stop-color="rgb(13.563538%, 13.563538%, 13.563538%)" offset="0.304688"/><stop stop-opacity="1" stop-color="rgb(13.916016%, 13.916016%, 13.916016%)" offset="0.3125"/><stop stop-opacity="1" stop-color="rgb(14.268494%, 14.268494%, 14.268494%)" offset="0.320312"/><stop stop-opacity="1" stop-color="rgb(14.620972%, 14.620972%, 14.620972%)" offset="0.328125"/><stop stop-opacity="1" stop-color="rgb(14.97345%, 14.97345%, 14.97345%)" offset="0.335938"/><stop stop-opacity="1" stop-color="rgb(15.325928%, 15.325928%, 15.325928%)" offset="0.34375"/><stop stop-opacity="1" stop-color="rgb(15.678406%, 15.678406%, 15.678406%)" offset="0.351562"/><stop stop-opacity="1" stop-color="rgb(16.030884%, 16.030884%, 16.030884%)" offset="0.359375"/><stop stop-opacity="1" stop-color="rgb(16.381836%, 16.381836%, 16.381836%)" offset="0.367188"/><stop stop-opacity="1" stop-color="rgb(16.734314%, 16.734314%, 16.734314%)" offset="0.375"/><stop stop-opacity="1" stop-color="rgb(17.086792%, 17.086792%, 17.086792%)" offset="0.382812"/><stop stop-opacity="1" stop-color="rgb(17.43927%, 17.43927%, 17.43927%)" offset="0.390625"/><stop stop-opacity="1" stop-color="rgb(17.791748%, 17.791748%, 17.791748%)" offset="0.398438"/><stop stop-opacity="1" stop-color="rgb(18.144226%, 18.144226%, 18.144226%)" offset="0.40625"/><stop stop-opacity="1" stop-color="rgb(18.496704%, 18.496704%, 18.496704%)" offset="0.414062"/><stop stop-opacity="1" stop-color="rgb(18.849182%, 18.849182%, 18.849182%)" offset="0.421875"/><stop stop-opacity="1" stop-color="rgb(19.20166%, 19.20166%, 19.20166%)" offset="0.429688"/><stop stop-opacity="1" stop-color="rgb(19.554138%, 19.554138%, 19.554138%)" offset="0.4375"/><stop stop-opacity="1" stop-color="rgb(19.906616%, 19.906616%, 19.906616%)" offset="0.445313"/><stop stop-opacity="1" stop-color="rgb(20.257568%, 20.257568%, 20.257568%)" offset="0.453125"/><stop stop-opacity="1" stop-color="rgb(20.610046%, 20.610046%, 20.610046%)" offset="0.460938"/><stop stop-opacity="1" stop-color="rgb(20.962524%, 20.962524%, 20.962524%)" offset="0.46875"/><stop stop-opacity="1" stop-color="rgb(21.315002%, 21.315002%, 21.315002%)" offset="0.476563"/><stop stop-opacity="1" stop-color="rgb(21.66748%, 21.66748%, 21.66748%)" offset="0.484375"/><stop stop-opacity="1" stop-color="rgb(22.019958%, 22.019958%, 22.019958%)" offset="0.492188"/><stop stop-opacity="1" stop-color="rgb(22.372437%, 22.372437%, 22.372437%)" offset="0.5"/><stop stop-opacity="1" stop-color="rgb(22.724915%, 22.724915%, 22.724915%)" offset="0.507812"/><stop stop-opacity="1" stop-color="rgb(23.077393%, 23.077393%, 23.077393%)" offset="0.515625"/><stop stop-opacity="1" stop-color="rgb(23.429871%, 23.429871%, 23.429871%)" offset="0.523438"/><stop stop-opacity="1" stop-color="rgb(23.782349%, 23.782349%, 23.782349%)" offset="0.53125"/><stop stop-opacity="1" stop-color="rgb(24.134827%, 24.134827%, 24.134827%)" offset="0.539062"/><stop stop-opacity="1" stop-color="rgb(24.485779%, 24.485779%, 24.485779%)" offset="0.546875"/><stop stop-opacity="1" stop-color="rgb(24.838257%, 24.838257%, 24.838257%)" offset="0.554688"/><stop stop-opacity="1" stop-color="rgb(25.190735%, 25.190735%, 25.190735%)" offset="0.5625"/><stop stop-opacity="1" stop-color="rgb(25.543213%, 25.543213%, 25.543213%)" offset="0.570312"/><stop stop-opacity="1" stop-color="rgb(25.895691%, 25.895691%, 25.895691%)" offset="0.578125"/><stop stop-opacity="1" stop-color="rgb(26.248169%, 26.248169%, 26.248169%)" offset="0.585938"/><stop stop-opacity="1" stop-color="rgb(26.600647%, 26.600647%, 26.600647%)" offset="0.59375"/><stop stop-opacity="1" stop-color="rgb(26.953125%, 26.953125%, 26.953125%)" offset="0.601562"/><stop stop-opacity="1" stop-color="rgb(27.305603%, 27.305603%, 27.305603%)" offset="0.609375"/><stop stop-opacity="1" stop-color="rgb(27.658081%, 27.658081%, 27.658081%)" offset="0.617188"/><stop stop-opacity="1" stop-color="rgb(28.010559%, 28.010559%, 28.010559%)" offset="0.625"/><stop stop-opacity="1" stop-color="rgb(28.361511%, 28.361511%, 28.361511%)" offset="0.632812"/><stop stop-opacity="1" stop-color="rgb(28.713989%, 28.713989%, 28.713989%)" offset="0.640625"/><stop stop-opacity="1" stop-color="rgb(29.066467%, 29.066467%, 29.066467%)" offset="0.648438"/><stop stop-opacity="1" stop-color="rgb(29.418945%, 29.418945%, 29.418945%)" offset="0.65625"/><stop stop-opacity="1" stop-color="rgb(29.771423%, 29.771423%, 29.771423%)" offset="0.664062"/><stop stop-opacity="1" stop-color="rgb(30.123901%, 30.123901%, 30.123901%)" offset="0.671875"/><stop stop-opacity="1" stop-color="rgb(30.476379%, 30.476379%, 30.476379%)" offset="0.679688"/><stop stop-opacity="1" stop-color="rgb(30.828857%, 30.828857%, 30.828857%)" offset="0.6875"/><stop stop-opacity="1" stop-color="rgb(31.181335%, 31.181335%, 31.181335%)" offset="0.695312"/><stop stop-opacity="1" stop-color="rgb(31.533813%, 31.533813%, 31.533813%)" offset="0.703125"/><stop stop-opacity="1" stop-color="rgb(31.886292%, 31.886292%, 31.886292%)" offset="0.710938"/><stop stop-opacity="1" stop-color="rgb(32.237244%, 32.237244%, 32.237244%)" offset="0.71875"/><stop stop-opacity="1" stop-color="rgb(32.589722%, 32.589722%, 32.589722%)" offset="0.726562"/><stop stop-opacity="1" stop-color="rgb(32.9422%, 32.9422%, 32.9422%)" offset="0.734375"/><stop stop-opacity="1" stop-color="rgb(33.294678%, 33.294678%, 33.294678%)" offset="0.742188"/><stop stop-opacity="1" stop-color="rgb(33.647156%, 33.647156%, 33.647156%)" offset="0.75"/><stop stop-opacity="1" stop-color="rgb(33.999634%, 33.999634%, 33.999634%)" offset="0.757812"/><stop stop-opacity="1" stop-color="rgb(34.352112%, 34.352112%, 34.352112%)" offset="0.765625"/><stop stop-opacity="1" stop-color="rgb(34.70459%, 34.70459%, 34.70459%)" offset="0.773438"/><stop stop-opacity="1" stop-color="rgb(35.057068%, 35.057068%, 35.057068%)" offset="0.78125"/><stop stop-opacity="1" stop-color="rgb(35.409546%, 35.409546%, 35.409546%)" offset="0.789062"/><stop stop-opacity="1" stop-color="rgb(35.762024%, 35.762024%, 35.762024%)" offset="0.796875"/><stop stop-opacity="1" stop-color="rgb(36.114502%, 36.114502%, 36.114502%)" offset="0.804688"/><stop stop-opacity="1" stop-color="rgb(36.465454%, 36.465454%, 36.465454%)" offset="0.8125"/><stop stop-opacity="1" stop-color="rgb(36.817932%, 36.817932%, 36.817932%)" offset="0.820312"/><stop stop-opacity="1" stop-color="rgb(37.17041%, 37.17041%, 37.17041%)" offset="0.828125"/><stop stop-opacity="1" stop-color="rgb(37.522888%, 37.522888%, 37.522888%)" offset="0.835938"/><stop stop-opacity="1" stop-color="rgb(37.875366%, 37.875366%, 37.875366%)" offset="0.84375"/><stop stop-opacity="1" stop-color="rgb(38.227844%, 38.227844%, 38.227844%)" offset="0.851562"/><stop stop-opacity="1" stop-color="rgb(38.580322%, 38.580322%, 38.580322%)" offset="0.859375"/><stop stop-opacity="1" stop-color="rgb(38.9328%, 38.9328%, 38.9328%)" offset="0.867188"/><stop stop-opacity="1" stop-color="rgb(39.285278%, 39.285278%, 39.285278%)" offset="0.875"/><stop stop-opacity="1" stop-color="rgb(39.637756%, 39.637756%, 39.637756%)" offset="0.882812"/><stop stop-opacity="1" stop-color="rgb(39.990234%, 39.990234%, 39.990234%)" offset="0.890625"/><stop stop-opacity="1" stop-color="rgb(40.341187%, 40.341187%, 40.341187%)" offset="0.898438"/><stop stop-opacity="1" stop-color="rgb(40.693665%, 40.693665%, 40.693665%)" offset="0.90625"/><stop stop-opacity="1" stop-color="rgb(41.046143%, 41.046143%, 41.046143%)" offset="0.914062"/><stop stop-opacity="1" stop-color="rgb(41.398621%, 41.398621%, 41.398621%)" offset="0.921875"/><stop stop-opacity="1" stop-color="rgb(41.751099%, 41.751099%, 41.751099%)" offset="0.929688"/><stop stop-opacity="1" stop-color="rgb(42.103577%, 42.103577%, 42.103577%)" offset="0.9375"/><stop stop-opacity="1" stop-color="rgb(42.456055%, 42.456055%, 42.456055%)" offset="0.945312"/><stop stop-opacity="1" stop-color="rgb(42.808533%, 42.808533%, 42.808533%)" offset="0.953125"/><stop stop-opacity="1" stop-color="rgb(43.161011%, 43.161011%, 43.161011%)" offset="0.960938"/><stop stop-opacity="1" stop-color="rgb(43.513489%, 43.513489%, 43.513489%)" offset="0.96875"/><stop stop-opacity="1" stop-color="rgb(43.865967%, 43.865967%, 43.865967%)" offset="0.976562"/><stop stop-opacity="1" stop-color="rgb(44.216919%, 44.216919%, 44.216919%)" offset="0.984375"/><stop stop-opacity="1" stop-color="rgb(44.569397%, 44.569397%, 44.569397%)" offset="0.992187"/><stop stop-opacity="1" stop-color="rgb(44.921875%, 44.921875%, 44.921875%)" offset="1"/></linearGradient><clipPath id="51a691d679"><path d="M 460.449219 191.125 L 644.949219 191.125 L 644.949219 404.125 L 460.449219 404.125 Z M 460.449219 191.125 " clip-rule="nonzero"/></clipPath><clipPath id="62f87c009c"><path d="M 384 95 L 747 95 L 747 457 L 384 457 Z M 384 95 " clip-rule="nonzero"/></clipPath><clipPath id="4aacbd7443"><path d="M 378.132812 101.90625 L 739.382812 88.425781 L 752.859375 449.675781 L 391.613281 463.152344 Z M 378.132812 101.90625 " clip-rule="nonzero"/></clipPath><clipPath id="f412c79d31"><path d="M 378.132812 101.90625 L 739.382812 88.425781 L 752.859375 449.675781 L 391.613281 463.152344 Z M 378.132812 101.90625 " clip-rule="nonzero"/></clipPath><clipPath id="8e06656fb6"><path d="M 407 117 L 724 117 L 724 435 L 407 435 Z M 407 117 " clip-rule="nonzero"/></clipPath><clipPath id="cce5362c16"><path d="M 378.132812 101.90625 L 739.382812 88.425781 L 752.859375 449.675781 L 391.613281 463.152344 Z M 378.132812 101.90625 " clip-rule="nonzero"/></clipPath><clipPath id="9e7f2a5cc6"><path d="M 378.132812 101.90625 L 739.382812 88.425781 L 752.859375 449.675781 L 391.613281 463.152344 Z M 378.132812 101.90625 " clip-rule="nonzero"/></clipPath></defs><g clip-path="url(#6f572d42e0)"><g clip-path="url(#82e6196993)"><path fill="url(#8b668d73d5)" d="M 359.171875 69.46875 L 359.171875 481.980469 L 771.683594 481.980469 L 771.683594 69.46875 Z M 359.171875 69.46875 " fill-rule="nonzero"/></g></g><g clip-path="url(#51a691d679)"><path fill="#999999" d="M 514.796875 404.125 C 511.519531 404.125 508.339844 403.210938 505.589844 401.519531 C 502.835938 403.210938 499.660156 404.125 496.378906 404.125 C 486.683594 404.125 478.796875 396.242188 478.796875 386.554688 C 478.796875 367.226562 478.761719 350.894531 478.703125 337.894531 C 477.800781 338.0625 476.878906 338.148438 475.941406 338.148438 C 473.503906 338.148438 471.074219 337.539062 468.914062 336.390625 C 465.386719 334.507812 462.804688 331.371094 461.640625 327.554688 C 460.476562 323.734375 460.875 319.691406 462.753906 316.171875 L 470.378906 301.898438 L 479.144531 281.054688 C 480.3125 278.265625 482.167969 276.011719 484.601562 274.394531 C 482.894531 269.855469 482.765625 264.851562 484.308594 260.167969 C 486.195312 254.453125 490.410156 249.800781 495.824219 247.34375 C 504.675781 214.238281 534.789062 191.125 569.078125 191.125 C 610.890625 191.125 644.902344 225.105469 644.902344 266.875 C 644.902344 286.753906 637.226562 305.542969 623.285156 319.785156 C 610.128906 333.230469 592.714844 341.226562 574.054688 342.441406 C 572.492188 344.699219 570.550781 346.632812 568.265625 348.210938 C 563.015625 351.832031 556.164062 353.519531 546.707031 353.519531 L 546.546875 353.519531 C 542.34375 353.511719 537.285156 353.253906 532.382812 351.738281 L 532.382812 386.554688 C 532.382812 396.242188 524.496094 404.125 514.796875 404.125 " fill-opacity="1" fill-rule="nonzero"/></g><path fill="#a8ff30" d="M 571.300781 192.777344 C 538.742188 192.777344 510.152344 214.738281 501.773438 246.183594 C 501.621094 246.753906 501.570312 247.332031 501.589844 247.910156 C 496.308594 249.578125 492.015625 253.691406 490.210938 259.164062 C 488.515625 264.300781 489.339844 269.675781 491.996094 273.945312 C 489.207031 274.863281 486.464844 276.695312 484.9375 280.339844 L 476.101562 301.347656 L 468.394531 315.78125 C 467 318.386719 466.707031 321.382812 467.570312 324.210938 C 468.429688 327.039062 470.34375 329.363281 472.957031 330.757812 C 474.558594 331.609375 476.359375 332.058594 478.160156 332.058594 C 480.589844 332.058594 482.890625 331.273438 484.765625 329.878906 C 484.832031 340.996094 484.890625 358.066406 484.890625 384.335938 C 484.890625 391.890625 491.039062 398.035156 498.597656 398.035156 C 502.140625 398.035156 505.371094 396.683594 507.808594 394.476562 C 510.242188 396.683594 513.476562 398.035156 517.019531 398.035156 C 524.578125 398.035156 530.726562 391.890625 530.726562 384.335938 L 530.726562 343.636719 C 536.289062 346.90625 543.105469 347.417969 548.765625 347.429688 L 548.925781 347.429688 C 557.558594 347.429688 563.710938 345.960938 568.28125 342.808594 C 570.707031 341.132812 572.632812 339.007812 574.0625 336.460938 C 592.507812 335.761719 609.761719 328.117188 622.734375 314.863281 C 635.960938 301.347656 643.246094 283.515625 643.246094 264.660156 C 643.246094 225.023438 610.96875 192.777344 571.300781 192.777344 " fill-opacity="1" fill-rule="nonzero"/><path fill="#000000" d="M 518.089844 268.335938 C 520.125 262.167969 516.769531 255.519531 510.59375 253.488281 C 504.417969 251.460938 497.765625 254.8125 495.734375 260.980469 C 493.699219 267.148438 497.054688 273.796875 503.230469 275.828125 C 509.40625 277.859375 516.058594 274.503906 518.089844 268.335938 " fill-opacity="1" fill-rule="nonzero"/><path fill="#000000" d="M 532.808594 299.460938 C 532.859375 299.492188 532.898438 299.539062 532.953125 299.566406 C 533.574219 298.78125 534.226562 298.027344 534.890625 297.292969 C 535.121094 297.035156 535.359375 296.792969 535.597656 296.542969 C 536.03125 296.085938 536.472656 295.644531 536.921875 295.214844 C 537.226562 294.921875 537.53125 294.632812 537.84375 294.351562 C 538.246094 293.992188 538.65625 293.65625 539.066406 293.320312 C 539.398438 293.046875 539.726562 292.765625 540.066406 292.507812 L 540.0625 292.503906 C 540.847656 291.90625 541.640625 291.34375 542.457031 290.835938 L 540.503906 289.460938 C 539.339844 289.550781 538.144531 289.585938 536.953125 289.625 L 522.359375 279.664062 C 520.617188 278.476562 520.839844 278.902344 508.789062 278.902344 L 505.054688 278.902344 C 498.273438 278.902344 492.246094 277.949219 490.296875 282.585938 L 481.359375 303.84375 L 473.523438 318.515625 C 472.15625 321.074219 473.125 324.261719 475.691406 325.628906 C 476.480469 326.046875 477.328125 326.25 478.160156 326.25 C 480.042969 326.25 481.863281 325.238281 482.808594 323.464844 L 490.390625 309.273438 C 490.390625 311.730469 490.703125 322.695312 490.703125 384.335938 C 490.703125 388.691406 494.238281 392.222656 498.597656 392.222656 C 502.957031 392.222656 506.492188 388.691406 506.492188 384.335938 L 506.492188 327.496094 L 509.125 327.496094 L 509.125 384.335938 C 509.125 388.691406 512.660156 392.222656 517.019531 392.222656 C 521.375 392.222656 524.910156 388.691406 524.910156 384.335938 L 524.910156 294.140625 L 532.464844 299.300781 C 532.574219 299.371094 532.691406 299.414062 532.808594 299.460938 " fill-opacity="1" fill-rule="nonzero"/><path fill="#000000" d="M 550.449219 329.027344 L 550.449219 332.890625 L 547.648438 332.890625 L 547.648438 329.132812 C 545.070312 329.101562 542.402344 328.429688 540.847656 327.5 L 541.914062 325.007812 C 543.515625 325.898438 545.828125 326.609375 548.3125 326.609375 C 551.46875 326.609375 553.605469 325.082031 553.605469 322.964844 C 553.605469 320.917969 551.871094 319.652344 548.582031 318.539062 C 544.046875 317.050781 541.25 315.339844 541.25 312.105469 C 541.25 309.019531 543.871094 306.675781 547.960938 306.117188 L 547.960938 302.363281 L 550.714844 302.363281 L 550.714844 305.972656 C 553.382812 306.042969 555.203125 306.640625 556.492188 307.273438 L 555.382812 309.726562 C 554.449219 309.277344 552.625 308.460938 549.78125 308.460938 C 546.359375 308.460938 545.070312 310.171875 545.070312 311.660156 C 545.070312 313.59375 546.714844 314.558594 550.582031 315.898438 C 555.160156 317.460938 557.472656 319.394531 557.472656 322.703125 C 557.472656 325.640625 555.027344 328.390625 550.449219 329.027344 Z M 557.511719 299.292969 C 555.222656 299.292969 553.039062 298.375 551.511719 296.769531 C 550.066406 295.246094 549.328125 293.222656 549.460938 291.09375 C 549.539062 289.175781 550.039062 287.675781 550.117188 287.519531 L 550.144531 287.359375 L 550.222656 287.230469 C 551.539062 284.523438 554.25 282.839844 557.300781 282.839844 C 557.539062 282.839844 557.773438 282.839844 558.011719 282.867188 C 559.222656 282.96875 560.351562 283.363281 561.355469 283.96875 C 561.539062 282.601562 565.226562 280.695312 563.515625 280.828125 C 560.832031 281.039062 552.988281 281.578125 551.222656 280.710938 C 550.933594 280.578125 550.699219 280.367188 550.511719 280.132812 C 549.25 278.710938 543.515625 273.140625 533.253906 276.53125 C 531.4375 277.132812 530.882812 279.210938 532.25 280.417969 L 547.488281 291.171875 C 536.59375 295.667969 526.59375 310.203125 526.570312 323.21875 C 526.515625 338.226562 535.699219 341.59375 548.777344 341.621094 C 561.878906 341.648438 571.246094 338.226562 571.300781 323.21875 C 571.328125 314.648438 567.011719 305.210938 561.167969 298.375 C 560.089844 298.980469 558.828125 299.292969 557.511719 299.292969 " fill-opacity="1" fill-rule="nonzero"/><path fill="#000000" d="M 557.777344 285.476562 C 555.5 285.28125 553.5 286.507812 552.59375 288.375 C 552.59375 288.375 552.160156 289.632812 552.078125 291.238281 C 551.792969 296.65625 559.425781 298.828125 561.90625 294.003906 C 562.46875 292.910156 562.550781 291.878906 562.566406 291.101562 C 562.609375 288.269531 560.601562 285.71875 557.777344 285.476562 " fill-opacity="1" fill-rule="nonzero"/><path fill="#000000" d="M 571.300781 198.585938 C 540.710938 198.585938 514.914062 219.449219 507.394531 247.675781 C 508.167969 247.699219 508.9375 247.75 509.699219 247.878906 C 517.09375 220.816406 541.902344 200.859375 571.300781 200.859375 C 606.511719 200.859375 635.15625 229.480469 635.15625 264.660156 C 635.15625 299.113281 607.671875 327.257812 573.460938 328.402344 C 573.320312 329.203125 573.148438 329.964844 572.945312 330.6875 C 608.648438 329.8125 637.429688 300.539062 637.429688 264.660156 C 637.429688 228.226562 607.761719 198.585938 571.300781 198.585938 " fill-opacity="1" fill-rule="nonzero"/><path fill="#000000" d="M 561.113281 247.308594 C 561.113281 250.09375 561.933594 252.667969 563.28125 254.886719 L 588.28125 254.886719 C 589.632812 252.667969 590.453125 250.09375 590.453125 247.308594 C 590.453125 239.214844 583.882812 232.652344 575.78125 232.652344 C 567.679688 232.652344 561.113281 239.214844 561.113281 247.308594 " fill-opacity="1" fill-rule="nonzero"/><path fill="#000000" d="M 586.808594 257.875 L 564.757812 257.875 L 564.757812 261.761719 L 586.808594 261.761719 L 586.808594 257.875 " fill-opacity="1" fill-rule="nonzero"/><path fill="#000000" d="M 586.808594 264.953125 L 564.757812 264.953125 L 564.757812 268.839844 L 586.808594 268.839844 L 586.808594 264.953125 " fill-opacity="1" fill-rule="nonzero"/><path fill="#000000" d="M 577.097656 226.871094 L 577.097656 216.503906 C 577.097656 215.777344 576.507812 215.1875 575.78125 215.1875 C 575.054688 215.1875 574.46875 215.777344 574.46875 216.503906 L 574.46875 226.871094 C 574.46875 227.597656 575.054688 228.1875 575.78125 228.1875 C 576.507812 228.1875 577.097656 227.597656 577.097656 226.871094 " fill-opacity="1" fill-rule="nonzero"/><path fill="#000000" d="M 554.910156 224.597656 C 554.394531 224.082031 553.5625 224.082031 553.050781 224.597656 C 552.535156 225.109375 552.535156 225.941406 553.050781 226.453125 L 560.386719 233.785156 C 560.644531 234.042969 560.980469 234.171875 561.316406 234.171875 C 561.652344 234.171875 561.988281 234.042969 562.246094 233.785156 C 562.761719 233.273438 562.761719 232.441406 562.246094 231.925781 L 554.910156 224.597656 " fill-opacity="1" fill-rule="nonzero"/><path fill="#000000" d="M 543.632812 247.308594 C 543.632812 248.035156 544.222656 248.625 544.949219 248.625 L 555.328125 248.625 C 556.054688 248.625 556.640625 248.035156 556.640625 247.308594 C 556.640625 246.582031 556.054688 245.996094 555.328125 245.996094 L 544.949219 245.996094 C 544.222656 245.996094 543.632812 246.582031 543.632812 247.308594 " fill-opacity="1" fill-rule="nonzero"/><path fill="#000000" d="M 594.921875 247.308594 C 594.921875 248.035156 595.511719 248.625 596.238281 248.625 L 606.617188 248.625 C 607.34375 248.625 607.933594 248.035156 607.933594 247.308594 C 607.933594 246.582031 607.34375 245.996094 606.617188 245.996094 L 596.238281 245.996094 C 595.511719 245.996094 594.921875 246.582031 594.921875 247.308594 " fill-opacity="1" fill-rule="nonzero"/><path fill="#000000" d="M 595.308594 224.597656 L 587.972656 231.925781 C 587.457031 232.441406 587.457031 233.273438 587.972656 233.785156 C 588.226562 234.042969 588.566406 234.171875 588.902344 234.171875 C 589.238281 234.171875 589.574219 234.042969 589.832031 233.785156 L 597.167969 226.453125 C 597.683594 225.941406 597.683594 225.109375 597.167969 224.597656 C 596.65625 224.082031 595.824219 224.082031 595.308594 224.597656 " fill-opacity="1" fill-rule="nonzero"/><path fill="#000000" d="M 586.808594 272.03125 L 564.757812 272.03125 C 576.378906 284.390625 586.808594 272.03125 586.808594 272.03125 " fill-opacity="1" fill-rule="nonzero"/><g fill="#fffffd" fill-opacity="1"><g transform="translate(468.20481, 212.796631)"><g><path d="M -11.6875 -34.140625 C -8.675781 -37.578125 -5.4375 -39.535156 -1.96875 -40.015625 C 1.5 -40.503906 4.820312 -39.351562 8 -36.5625 L 1.78125 -29.46875 C 0.4375 -30.644531 -0.9375 -31.226562 -2.34375 -31.21875 C -3.75 -31.207031 -5.019531 -30.550781 -6.15625 -29.25 C -7.46875 -27.757812 -7.960938 -26.242188 -7.640625 -24.703125 C -7.328125 -23.171875 -6.332031 -21.671875 -4.65625 -20.203125 L -2.5 -18.3125 C -0.84375 -16.851562 0.769531 -16.0625 2.34375 -15.9375 C 3.925781 -15.8125 5.351562 -16.472656 6.625 -17.921875 C 7.882812 -19.359375 8.46875 -20.769531 8.375 -22.15625 C 8.28125 -23.539062 7.5625 -24.816406 6.21875 -25.984375 L 12.234375 -32.84375 C 15.390625 -30.082031 16.957031 -26.992188 16.9375 -23.578125 C 16.925781 -20.171875 15.363281 -16.695312 12.25 -13.15625 C 8.800781 -9.21875 5.175781 -7.117188 1.375 -6.859375 C -2.425781 -6.597656 -6.296875 -8.195312 -10.234375 -11.65625 C -14.171875 -15.113281 -16.257812 -18.738281 -16.5 -22.53125 C -16.738281 -26.332031 -15.132812 -30.203125 -11.6875 -34.140625 Z M -11.6875 -34.140625 "/></g></g></g><g fill="#fffffd" fill-opacity="1"><g transform="translate(488.438746, 189.003996)"><g><path d="M 15.515625 -35.640625 C 16.546875 -34.066406 17.050781 -32.363281 17.03125 -30.53125 C 17.007812 -28.707031 16.390625 -26.960938 15.171875 -25.296875 L 27.9375 -18.28125 L 18.671875 -12.21875 L 7.96875 -18.625 L 4.890625 -16.609375 L 11.03125 -7.21875 L 2.765625 -1.8125 L -14.078125 -27.546875 L 1.671875 -37.84375 C 3.515625 -39.050781 5.320312 -39.726562 7.09375 -39.875 C 8.875 -40.019531 10.488281 -39.707031 11.9375 -38.9375 C 13.382812 -38.164062 14.578125 -37.066406 15.515625 -35.640625 Z M 7.328125 -29.78125 C 6.890625 -30.457031 6.296875 -30.875 5.546875 -31.03125 C 4.796875 -31.1875 4.097656 -31.050781 3.453125 -30.625 L -1.96875 -27.078125 L 1.140625 -22.328125 L 6.5625 -25.875 C 7.207031 -26.300781 7.601562 -26.890625 7.75 -27.640625 C 7.90625 -28.398438 7.765625 -29.113281 7.328125 -29.78125 Z M 7.328125 -29.78125 "/></g></g></g><g fill="#fffffd" fill-opacity="1"><g transform="translate(514.124011, 171.380196)"><g><path d="M 8.546875 -35.375 C 13.617188 -36.9375 17.9375 -36.84375 21.5 -35.09375 C 25.0625 -33.351562 27.601562 -30.003906 29.125 -25.046875 C 30.65625 -20.085938 30.4375 -15.890625 28.46875 -12.453125 C 26.507812 -9.023438 22.992188 -6.53125 17.921875 -4.96875 C 12.859375 -3.40625 8.554688 -3.488281 5.015625 -5.21875 C 1.472656 -6.957031 -1.066406 -10.3125 -2.609375 -15.28125 C -4.140625 -20.269531 -3.925781 -24.472656 -1.96875 -27.890625 C -0.0195312 -31.316406 3.484375 -33.8125 8.546875 -35.375 Z M 10.71875 -28.328125 C 8.695312 -27.710938 7.347656 -26.628906 6.671875 -25.078125 C 6.003906 -23.523438 5.988281 -21.707031 6.625 -19.625 L 7.46875 -16.890625 C 8.113281 -14.816406 9.148438 -13.332031 10.578125 -12.4375 C 12.003906 -11.539062 13.726562 -11.398438 15.75 -12.015625 C 17.769531 -12.640625 19.128906 -13.726562 19.828125 -15.28125 C 20.523438 -16.832031 20.550781 -18.644531 19.90625 -20.71875 L 19.0625 -23.453125 C 18.425781 -25.535156 17.378906 -27.023438 15.921875 -27.921875 C 14.472656 -28.816406 12.738281 -28.953125 10.71875 -28.328125 Z M 10.71875 -28.328125 "/></g></g></g><g fill="#fffffd" fill-opacity="1"><g transform="translate(545.55218, 160.395454)"><g><path d="M 26.421875 0.546875 L 22.828125 -18.28125 L 22.65625 -18.28125 L 18.28125 0.375 L 7.421875 0.15625 L 0.84375 -30.75 L 11.125 -30.53125 L 14.3125 -13.046875 L 14.5 -13.03125 L 18.328125 -30.390625 L 28.078125 -30.1875 L 31.4375 -12.6875 L 31.625 -12.6875 L 35.265625 -30.03125 L 45.09375 -29.84375 L 37.265625 0.765625 Z M 26.421875 0.546875 "/></g></g></g><g fill="#fffffd" fill-opacity="1"><g transform="translate(586.158136, 161.367201)"><g><path d="M 25.6875 -23.703125 C 35.875 -20.210938 39.304688 -13.617188 35.984375 -3.921875 C 32.660156 5.773438 25.90625 8.878906 15.71875 5.390625 L 3.140625 1.078125 L 13.109375 -28.015625 Z M 14.859375 -2.6875 L 17.953125 -1.625 C 21.878906 -0.28125 24.5625 -1.707031 26 -5.90625 L 26.875 -8.453125 C 28.3125 -12.648438 27.066406 -15.421875 23.140625 -16.765625 L 20.046875 -17.828125 Z M 14.859375 -2.6875 "/></g></g></g><g fill="#fffffd" fill-opacity="1"><g transform="translate(615.907266, 171.448813)"><g><path d="M 19.671875 -23.859375 L 40.421875 -10.203125 L 36.359375 -4.046875 L 23.859375 -12.28125 L 20.96875 -7.875 L 31.71875 -0.796875 L 27.84375 5.09375 L 17.09375 -1.984375 L 11.015625 7.25 L 2.765625 1.828125 Z M 19.671875 -23.859375 "/></g></g></g><g fill="#fffffd" fill-opacity="1"><g transform="translate(638.506932, 185.205492)"><g><path d="M 31.8125 17.109375 C 28.675781 19.898438 25.398438 21.035156 21.984375 20.515625 C 18.578125 20.003906 15.25 17.925781 12 14.28125 C 8.75 10.632812 7.0625 7.078125 6.9375 3.609375 C 6.8125 0.148438 8.316406 -2.972656 11.453125 -5.765625 L 25.171875 -17.984375 L 31.734375 -10.609375 L 18.109375 1.515625 C 16.816406 2.671875 16.09375 3.9375 15.9375 5.3125 C 15.789062 6.6875 16.300781 8.03125 17.46875 9.34375 C 18.644531 10.65625 19.929688 11.3125 21.328125 11.3125 C 22.734375 11.320312 24.066406 10.757812 25.328125 9.625 L 38.953125 -2.5 L 45.53125 4.890625 Z M 31.8125 17.109375 "/></g></g></g><g fill="#fffffd" fill-opacity="1"><g transform="translate(661.178971, 209.842926)"><g><path d="M 10.703125 22.921875 L 18.765625 4.890625 L 5.234375 11.21875 L 1.40625 3 L 29.265625 -10.015625 L 32.90625 -2.203125 L 24.65625 15.90625 L 38.390625 9.5 L 42.21875 17.71875 L 14.359375 30.734375 Z M 10.703125 22.921875 "/></g></g></g><g fill="#fffffd" fill-opacity="1"><g transform="translate(675.696791, 240.100255)"><g><path d="M 32.96875 11.625 C 34.644531 22.25 30.421875 28.363281 20.296875 29.96875 C 10.171875 31.5625 4.269531 27.046875 2.59375 16.421875 L 0.515625 3.265625 L 30.890625 -1.53125 Z M 9.34375 11.875 L 9.84375 15.09375 C 10.488281 19.1875 13.003906 20.890625 17.390625 20.203125 L 20.046875 19.78125 C 24.429688 19.09375 26.300781 16.703125 25.65625 12.609375 L 25.15625 9.390625 Z M 9.34375 11.875 "/></g></g></g><g fill="#fffffd" fill-opacity="1"><g transform="translate(681.652416, 270.539045)"><g><path d="M -4.25 29.421875 L 6.734375 31.015625 C 8.078125 31.203125 9.457031 31.453125 10.875 31.765625 C 12.289062 32.078125 13.476562 32.359375 14.4375 32.609375 C 15.394531 32.867188 16 33.035156 16.25 33.109375 L 16.28125 32.9375 L -3.515625 24.34375 L -2.40625 16.6875 L 18.96875 13.984375 L 19 13.8125 C 18.738281 13.8125 18.117188 13.804688 17.140625 13.796875 C 16.160156 13.785156 14.941406 13.734375 13.484375 13.640625 C 12.035156 13.546875 10.640625 13.40625 9.296875 13.21875 L -1.6875 11.625 L -0.390625 2.65625 L 30.046875 7.046875 L 28.0625 20.84375 L 9.828125 22.921875 L 9.8125 23.09375 L 26.703125 30.1875 L 24.78125 43.5 L -5.65625 39.109375 Z M -4.25 29.421875 "/></g></g></g><g fill="#fffffd" fill-opacity="1"><g transform="translate(676.012869, 308.457385)"><g><path d="M 26.515625 15.921875 L 15.34375 40.0625 L 8.640625 36.96875 L 15.65625 21.796875 L 11.828125 20.015625 L 5.8125 33 L -0.625 30.015625 L 5.390625 17.03125 L 1.140625 15.0625 L -6.015625 30.515625 L -12.703125 27.421875 L -1.390625 3 Z M 26.515625 15.921875 "/></g></g></g><g fill="#fffffd" fill-opacity="1"><g transform="translate(663.018032, 335.171905)"><g/></g></g><g clip-path="url(#62f87c009c)"><g clip-path="url(#4aacbd7443)"><g clip-path="url(#f412c79d31)"><path fill="#a8ff30" d="M 572.273438 456.414062 C 524.046875 458.210938 477.929688 441.121094 442.542969 408.277344 C 407.152344 375.433594 386.675781 330.789062 384.875 282.566406 C 383.074219 234.339844 400.167969 188.222656 433.011719 152.832031 C 465.855469 117.445312 510.5 96.964844 558.792969 95.164062 C 607.089844 93.363281 653.066406 110.460938 688.453125 143.304688 C 723.84375 176.148438 744.320312 220.792969 746.125 269.085938 C 747.925781 317.382812 730.828125 363.355469 697.984375 398.746094 C 665.140625 434.136719 620.496094 454.613281 572.273438 456.414062 Z M 559.199219 105.960938 C 513.851562 107.652344 471.828125 126.878906 440.925781 160.179688 C 410.019531 193.476562 393.976562 236.746094 395.671875 282.164062 C 397.367188 327.578125 416.589844 369.53125 449.886719 400.433594 C 483.1875 431.339844 526.457031 447.382812 571.871094 445.6875 C 617.289062 443.992188 659.242188 424.769531 690.144531 391.472656 C 721.050781 358.171875 737.09375 314.902344 735.398438 269.488281 C 733.703125 224.070312 714.480469 182.117188 681.179688 151.214844 C 647.808594 120.3125 604.542969 104.269531 559.199219 105.960938 Z M 559.199219 105.960938 " fill-opacity="1" fill-rule="nonzero"/></g></g></g><g clip-path="url(#8e06656fb6)"><g clip-path="url(#cce5362c16)"><g clip-path="url(#9e7f2a5cc6)"><path fill="#a8ff30" d="M 567.832031 434.019531 L 567.402344 434.035156 C 565.816406 434.023438 564.542969 432.773438 564.558594 431.257812 C 564.574219 429.742188 565.753906 428.472656 567.265625 428.417969 C 567.265625 428.417969 567.335938 428.414062 567.335938 428.414062 L 567.695312 428.402344 C 569.28125 428.414062 570.554688 429.664062 570.539062 431.179688 C 570.59375 432.691406 569.417969 433.960938 567.832031 434.019531 Z M 582.070312 433.128906 C 580.558594 433.183594 579.292969 432.078125 579.164062 430.570312 C 579.035156 428.988281 580.136719 427.648438 581.714844 427.445312 L 582.003906 427.4375 C 583.582031 427.234375 584.996094 428.40625 585.121094 429.914062 C 585.324219 431.492188 584.152344 432.90625 582.644531 433.035156 L 582.285156 433.046875 C 582.144531 433.125 582.070312 433.128906 582.070312 433.128906 Z M 553.328125 433.550781 C 553.257812 433.554688 553.113281 433.558594 552.96875 433.5625 L 552.605469 433.503906 C 551.015625 433.347656 549.882812 432.023438 550.039062 430.429688 C 550.199219 428.839844 551.523438 427.707031 553.117188 427.863281 L 553.480469 427.921875 C 555.066406 428.007812 556.199219 429.40625 556.117188 430.996094 C 555.878906 432.375 554.695312 433.5 553.328125 433.550781 Z M 596.40625 430.933594 C 595.039062 430.984375 593.777344 430.023438 593.507812 428.664062 C 593.164062 427.164062 594.1875 425.613281 595.761719 425.335938 L 596.121094 425.25 C 597.625 424.980469 599.171875 425.929688 599.449219 427.503906 C 599.722656 429.082031 598.769531 430.558594 597.195312 430.832031 L 596.835938 430.917969 C 596.765625 430.921875 596.621094 430.925781 596.40625 430.933594 Z M 538.84375 431.710938 C 538.628906 431.722656 538.484375 431.726562 538.265625 431.664062 L 537.902344 431.605469 C 536.378906 431.300781 535.316406 429.828125 535.617188 428.300781 C 535.921875 426.777344 537.394531 425.710938 538.921875 426.015625 L 539.28125 426.074219 C 540.808594 426.378906 541.871094 427.78125 541.570312 429.375 C 541.332031 430.753906 540.140625 431.664062 538.84375 431.710938 Z M 610.546875 427.453125 C 609.25 427.5 608.066406 426.679688 607.730469 425.394531 C 607.3125 423.898438 608.117188 422.28125 609.6875 421.863281 L 609.972656 421.777344 C 611.46875 421.289062 613.085938 422.167969 613.503906 423.664062 C 613.992188 425.160156 613.117188 426.78125 611.617188 427.195312 L 611.261719 427.28125 C 611.046875 427.359375 610.761719 427.445312 610.546875 427.453125 Z M 524.671875 428.566406 C 524.382812 428.578125 524.09375 428.515625 523.804688 428.453125 L 523.511719 428.394531 C 521.980469 427.945312 521.058594 426.394531 521.507812 424.863281 C 521.953125 423.332031 523.4375 422.484375 524.964844 422.859375 L 525.328125 422.917969 C 526.855469 423.292969 527.707031 424.921875 527.328125 426.375 C 526.945312 427.6875 525.824219 428.523438 524.671875 428.566406 Z M 624.273438 422.542969 C 623.121094 422.585938 622.015625 421.90625 621.539062 420.769531 C 620.984375 419.351562 621.640625 417.667969 623.132812 417.109375 L 623.417969 416.953125 C 624.835938 416.394531 626.519531 417.054688 627.148438 418.472656 C 627.707031 419.890625 627.046875 421.574219 625.628906 422.203125 L 625.277344 422.363281 C 624.921875 422.519531 624.632812 422.53125 624.273438 422.542969 Z M 510.8125 424.109375 C 510.453125 424.121094 510.089844 424.0625 509.722656 423.933594 L 509.359375 423.804688 C 507.894531 423.210938 507.183594 421.578125 507.707031 420.117188 C 508.300781 418.652344 509.933594 417.945312 511.394531 418.464844 L 511.6875 418.597656 C 513.148438 419.121094 513.929688 420.75 513.339844 422.285156 C 512.945312 423.308594 511.890625 424.070312 510.8125 424.109375 Z M 637.523438 416.425781 C 636.445312 416.46875 635.414062 415.929688 634.945312 414.9375 C 634.242188 413.523438 634.757812 411.84375 636.097656 411.074219 L 636.453125 410.917969 C 637.867188 410.214844 639.546875 410.730469 640.320312 412.140625 C 641.019531 413.558594 640.507812 415.234375 639.089844 415.9375 L 638.808594 416.089844 C 638.3125 416.324219 637.882812 416.414062 637.523438 416.425781 Z M 497.402344 418.265625 C 496.972656 418.28125 496.460938 418.15625 496.023438 417.957031 L 495.730469 417.824219 C 494.335938 417.15625 493.765625 415.449219 494.433594 414.054688 C 495.105469 412.660156 496.8125 412.089844 498.207031 412.757812 L 498.5 412.890625 C 499.894531 413.5625 500.464844 415.269531 499.792969 416.664062 C 499.398438 417.6875 498.410156 418.230469 497.402344 418.265625 Z M 650.082031 409.109375 C 649.144531 409.144531 648.191406 408.675781 647.582031 407.835938 C 646.738281 406.496094 647.105469 404.753906 648.371094 403.914062 L 648.652344 403.6875 C 649.992188 402.84375 651.734375 403.210938 652.578125 404.550781 C 653.417969 405.886719 653.050781 407.628906 651.714844 408.472656 L 651.433594 408.628906 C 651.082031 408.929688 650.585938 409.09375 650.082031 409.109375 Z M 484.601562 411.25 C 484.097656 411.265625 483.515625 411.144531 483 410.804688 L 482.703125 410.597656 C 481.375 409.785156 480.949219 408.070312 481.761719 406.667969 C 482.578125 405.34375 484.292969 404.917969 485.691406 405.730469 L 485.988281 405.933594 C 487.316406 406.75 487.738281 408.464844 486.925781 409.863281 C 486.457031 410.746094 485.535156 411.214844 484.601562 411.25 Z M 661.945312 400.597656 C 661.078125 400.628906 660.199219 400.226562 659.597656 399.53125 C 658.617188 398.339844 658.835938 396.53125 660.023438 395.550781 L 660.304688 395.324219 C 661.566406 394.339844 663.304688 394.5625 664.285156 395.75 C 665.269531 397.011719 665.046875 398.75 663.855469 399.730469 L 663.578125 399.957031 C 663.089844 400.410156 662.519531 400.574219 661.945312 400.597656 Z M 472.546875 403.121094 C 471.902344 403.144531 471.246094 402.953125 470.726562 402.539062 L 470.429688 402.335938 C 469.167969 401.375 468.886719 399.652344 469.851562 398.394531 C 470.8125 397.132812 472.53125 396.851562 473.792969 397.8125 L 474.089844 398.019531 C 475.347656 398.980469 475.558594 400.773438 474.667969 401.960938 C 474.191406 402.699219 473.414062 403.089844 472.546875 403.121094 Z M 672.902344 391.035156 C 672.109375 391.0625 671.308594 390.804688 670.78125 390.175781 C 669.730469 389.0625 669.734375 387.257812 670.847656 386.207031 L 671.128906 385.980469 C 672.238281 384.859375 674.042969 384.9375 675.167969 386.046875 C 676.289062 387.160156 676.214844 388.964844 675.101562 390.085938 L 674.894531 390.308594 C 674.261719 390.765625 673.550781 391.007812 672.902344 391.035156 Z M 461.316406 393.808594 C 460.597656 393.835938 459.867188 393.574219 459.34375 393.089844 L 459.046875 392.8125 C 457.855469 391.777344 457.789062 389.976562 458.894531 388.78125 C 459.933594 387.589844 461.730469 387.523438 462.925781 388.632812 L 463.152344 388.839844 C 464.34375 389.878906 464.410156 391.675781 463.371094 392.867188 C 462.820312 393.539062 462.039062 393.78125 461.316406 393.808594 Z M 682.960938 380.496094 C 682.242188 380.523438 681.585938 380.332031 680.988281 379.777344 C 679.796875 378.738281 679.65625 376.941406 680.691406 375.75 L 680.898438 375.453125 C 681.933594 374.261719 683.730469 374.125 684.921875 375.160156 C 686.117188 376.195312 686.253906 377.992188 685.21875 379.1875 L 685.011719 379.410156 C 684.460938 380.152344 683.679688 380.46875 682.960938 380.496094 Z M 450.992188 383.601562 C 450.199219 383.628906 449.394531 383.300781 448.792969 382.671875 L 448.566406 382.394531 C 447.511719 381.207031 447.59375 379.472656 448.777344 378.347656 C 449.960938 377.296875 451.695312 377.375 452.820312 378.558594 L 453.046875 378.839844 C 454.101562 380.023438 454.019531 381.757812 452.835938 382.882812 C 452.277344 383.335938 451.636719 383.574219 450.992188 383.601562 Z M 691.976562 369.058594 C 691.398438 369.082031 690.746094 368.890625 690.226562 368.546875 C 688.96875 367.65625 688.613281 365.867188 689.574219 364.609375 L 689.78125 364.3125 C 690.671875 363.054688 692.460938 362.769531 693.71875 363.660156 C 694.980469 364.550781 695.261719 366.339844 694.371094 367.601562 L 694.167969 367.894531 C 693.691406 368.636719 692.839844 369.027344 691.976562 369.058594 Z M 441.707031 372.414062 C 440.84375 372.445312 439.890625 372.050781 439.359375 371.277344 L 439.132812 370.996094 C 438.21875 369.734375 438.445312 367.996094 439.703125 367.011719 C 440.96875 366.097656 442.707031 366.324219 443.691406 367.582031 L 443.917969 367.863281 C 444.828125 369.125 444.605469 370.863281 443.34375 371.847656 C 442.777344 372.15625 442.210938 372.394531 441.707031 372.414062 Z M 699.882812 356.871094 C 699.378906 356.890625 698.867188 356.765625 698.355469 356.496094 C 697.027344 355.679688 696.53125 353.96875 697.34375 352.640625 L 697.550781 352.34375 C 698.367188 351.019531 700.078125 350.523438 701.40625 351.335938 C 702.734375 352.152344 703.230469 353.863281 702.414062 355.191406 L 702.207031 355.488281 C 701.734375 356.296875 700.816406 356.835938 699.882812 356.871094 Z M 433.402344 360.398438 C 432.394531 360.4375 431.441406 359.96875 430.902344 359.050781 L 430.746094 358.769531 C 429.90625 357.429688 430.34375 355.683594 431.683594 354.839844 C 433.019531 354 434.765625 354.4375 435.609375 355.777344 L 435.765625 356.058594 C 436.605469 357.394531 436.167969 359.144531 434.828125 359.984375 C 434.40625 360.21875 433.90625 360.378906 433.402344 360.398438 Z M 706.679688 343.933594 C 706.246094 343.949219 705.8125 343.894531 705.371094 343.691406 C 703.976562 343.023438 703.339844 341.316406 704.007812 339.925781 L 704.140625 339.628906 C 704.808594 338.234375 706.515625 337.597656 707.910156 338.265625 C 709.304688 338.933594 709.945312 340.640625 709.273438 342.035156 L 709.140625 342.328125 C 708.671875 343.28125 707.6875 343.894531 706.679688 343.933594 Z M 426.371094 347.6875 C 425.289062 347.726562 424.257812 347.117188 423.71875 346.128906 L 423.5625 345.847656 C 422.859375 344.429688 423.445312 342.75 424.863281 342.050781 C 426.277344 341.347656 427.957031 341.933594 428.660156 343.351562 L 428.8125 343.632812 C 429.515625 345.046875 428.929688 346.726562 427.511719 347.429688 C 427.160156 347.585938 426.730469 347.675781 426.371094 347.6875 Z M 712.160156 330.464844 C 711.800781 330.480469 711.4375 330.421875 711.144531 330.289062 C 709.683594 329.765625 708.902344 328.136719 709.421875 326.675781 L 709.554688 326.3125 C 710.074219 324.851562 711.703125 324.066406 713.164062 324.589844 C 714.625 325.113281 715.40625 326.742188 714.886719 328.203125 L 714.753906 328.566406 C 714.292969 329.664062 713.3125 330.421875 712.160156 330.464844 Z M 420.464844 334.359375 C 419.316406 334.402344 418.136719 333.722656 417.730469 332.511719 L 417.574219 332.160156 C 417.011719 330.667969 417.746094 329.054688 419.238281 328.492188 C 420.730469 327.933594 422.34375 328.664062 422.90625 330.15625 L 423.0625 330.511719 C 423.621094 332.003906 422.890625 333.617188 421.46875 334.175781 C 421.113281 334.261719 420.828125 334.34375 420.464844 334.359375 Z M 716.394531 316.542969 C 716.109375 316.550781 715.890625 316.488281 715.597656 316.425781 C 714.070312 316.050781 713.148438 314.5 713.523438 312.972656 L 713.582031 312.609375 C 713.957031 311.082031 715.507812 310.160156 717.039062 310.535156 C 718.566406 310.910156 719.488281 312.460938 719.113281 313.988281 L 719.054688 314.351562 C 718.667969 315.589844 717.621094 316.496094 716.394531 316.542969 Z M 415.914062 320.472656 C 414.617188 320.519531 413.433594 319.699219 413.097656 318.414062 L 413.011719 318.058594 C 412.59375 316.558594 413.472656 315.011719 414.972656 314.597656 C 416.46875 314.179688 418.015625 315.058594 418.433594 316.558594 L 418.519531 316.914062 C 418.933594 318.414062 418.054688 319.960938 416.558594 320.375 C 416.34375 320.457031 416.128906 320.464844 415.914062 320.472656 Z M 719.25 302.234375 C 719.105469 302.242188 718.890625 302.25 718.671875 302.183594 C 717.148438 301.953125 716.085938 300.480469 716.316406 298.957031 L 716.375 298.59375 C 716.605469 297.074219 718.082031 296.007812 719.601562 296.242188 C 721.125 296.472656 722.191406 297.945312 721.957031 299.46875 L 721.898438 299.832031 C 721.734375 301.207031 720.546875 302.1875 719.25 302.234375 Z M 412.644531 306.324219 C 411.277344 306.375 410.015625 305.414062 409.746094 303.980469 L 409.660156 303.625 C 409.386719 302.046875 410.414062 300.640625 411.992188 300.367188 C 413.566406 300.089844 414.972656 301.117188 415.25 302.695312 L 415.335938 303.050781 C 415.609375 304.628906 414.582031 306.035156 413.082031 306.378906 C 412.933594 306.3125 412.789062 306.316406 412.644531 306.324219 Z M 720.730469 287.765625 C 720.65625 287.769531 720.511719 287.773438 720.441406 287.777344 C 718.851562 287.691406 717.648438 286.367188 717.804688 284.773438 L 717.792969 284.414062 C 717.878906 282.828125 719.203125 281.625 720.792969 281.78125 C 722.382812 281.867188 723.585938 283.191406 723.429688 284.78125 L 723.441406 285.140625 C 723.421875 286.582031 722.167969 287.710938 720.730469 287.765625 Z M 410.808594 291.90625 C 409.296875 291.960938 408.03125 290.855469 407.902344 289.273438 L 407.886719 288.914062 C 407.757812 287.332031 408.933594 285.992188 410.441406 285.863281 C 412.023438 285.734375 413.363281 286.90625 413.492188 288.417969 L 413.503906 288.777344 C 413.636719 290.359375 412.460938 291.699219 410.953125 291.828125 C 410.882812 291.902344 410.808594 291.90625 410.808594 291.90625 Z M 720.890625 272.839844 C 719.308594 272.898438 717.90625 272.015625 717.847656 270.429688 L 717.835938 270.140625 C 717.835938 270.140625 717.835938 270.070312 717.835938 270.070312 L 717.820312 269.710938 C 717.761719 268.128906 719.011719 266.855469 720.59375 266.796875 C 722.179688 266.738281 723.523438 267.984375 723.578125 269.496094 L 723.589844 269.785156 C 723.589844 269.785156 723.59375 269.855469 723.59375 269.855469 L 723.605469 270.214844 C 723.664062 271.800781 722.476562 272.78125 720.890625 272.839844 Z M 410.191406 277.296875 C 410.121094 277.296875 410.121094 277.296875 410.050781 277.300781 C 408.464844 277.289062 407.191406 276.039062 407.203125 274.453125 L 407.191406 274.09375 C 407.203125 272.507812 408.527344 271.304688 410.042969 271.320312 C 411.628906 271.332031 412.898438 272.582031 412.816406 274.171875 L 412.828125 274.53125 C 412.957031 276.039062 411.703125 277.238281 410.191406 277.296875 Z M 719.703125 258.324219 C 718.261719 258.378906 717 257.34375 716.796875 255.839844 L 716.785156 255.476562 C 716.582031 253.898438 717.683594 252.488281 719.1875 252.289062 C 720.765625 252.085938 722.175781 253.1875 722.378906 254.691406 L 722.390625 255.050781 C 722.59375 256.628906 721.492188 258.042969 719.914062 258.246094 C 719.847656 258.320312 719.773438 258.320312 719.703125 258.324219 Z M 411.019531 262.777344 C 410.878906 262.78125 410.734375 262.789062 410.660156 262.792969 C 409.070312 262.632812 407.9375 261.234375 408.097656 259.714844 L 408.152344 259.351562 C 408.3125 257.761719 409.710938 256.628906 411.304688 256.855469 C 412.894531 257.011719 414.03125 258.414062 413.800781 260.007812 L 413.742188 260.371094 C 413.574219 261.671875 412.386719 262.726562 411.019531 262.777344 Z M 717.148438 244.003906 C 715.78125 244.054688 714.597656 243.164062 714.257812 241.804688 L 714.171875 241.449219 C 713.828125 239.949219 714.777344 238.398438 716.277344 238.054688 C 717.78125 237.710938 719.328125 238.660156 719.671875 240.164062 L 719.757812 240.519531 C 720.101562 242.019531 719.152344 243.570312 717.652344 243.914062 C 717.4375 243.992188 717.292969 244 717.148438 244.003906 Z M 413.148438 248.355469 C 412.933594 248.363281 412.71875 248.371094 412.5 248.308594 C 410.972656 248.003906 409.980469 246.527344 410.285156 245.003906 L 410.34375 244.640625 C 410.648438 243.113281 412.125 242.121094 413.648438 242.425781 C 415.175781 242.730469 416.167969 244.207031 415.863281 245.730469 L 415.804688 246.09375 C 415.566406 247.398438 414.445312 248.308594 413.148438 248.355469 Z M 713.238281 229.953125 C 712.015625 229.996094 710.832031 229.25 710.425781 227.964844 L 710.339844 227.609375 C 709.851562 226.113281 710.65625 224.496094 712.152344 224.007812 C 713.648438 223.519531 715.261719 224.324219 715.75 225.820312 L 715.835938 226.179688 C 716.324219 227.671875 715.519531 229.289062 714.023438 229.777344 C 713.742188 229.933594 713.453125 229.941406 713.238281 229.953125 Z M 416.660156 234.242188 C 416.371094 234.253906 416.082031 234.191406 415.71875 234.132812 C 414.1875 233.683594 413.335938 232.132812 413.785156 230.601562 L 413.917969 230.308594 C 414.367188 228.777344 415.992188 227.921875 417.449219 228.375 C 418.980469 228.820312 419.832031 230.375 419.382812 231.90625 L 419.253906 232.269531 C 418.9375 233.4375 417.8125 234.199219 416.660156 234.242188 Z M 708.046875 216.378906 C 706.894531 216.421875 705.789062 215.742188 705.316406 214.679688 L 705.160156 214.394531 C 704.53125 212.976562 705.191406 211.296875 706.609375 210.664062 C 708.027344 210.035156 709.707031 210.695312 710.339844 212.113281 L 710.496094 212.46875 C 711.125 213.886719 710.46875 215.566406 709.046875 216.195312 C 708.691406 216.28125 708.40625 216.363281 708.046875 216.378906 Z M 421.480469 220.511719 C 421.121094 220.523438 420.6875 220.46875 420.320312 220.339844 C 418.859375 219.742188 418.148438 218.113281 418.742188 216.648438 L 418.871094 216.285156 C 419.464844 214.820312 421.097656 214.109375 422.5625 214.703125 C 424.023438 215.296875 424.734375 216.929688 424.140625 218.394531 L 424.007812 218.6875 C 423.542969 219.785156 422.558594 220.472656 421.480469 220.511719 Z M 701.574219 203.285156 C 700.566406 203.324219 699.539062 202.785156 698.996094 201.796875 L 698.84375 201.511719 C 698.070312 200.171875 698.582031 198.425781 699.925781 197.652344 C 701.265625 196.882812 703.011719 197.394531 703.785156 198.734375 L 703.9375 199.015625 C 704.710938 200.359375 704.199219 202.105469 702.859375 202.878906 C 702.4375 203.179688 702.007812 203.269531 701.574219 203.285156 Z M 427.542969 207.238281 C 427.039062 207.257812 426.601562 207.128906 426.164062 206.929688 C 424.765625 206.1875 424.199219 204.480469 424.9375 203.082031 L 425.070312 202.789062 C 425.8125 201.394531 427.523438 200.898438 428.917969 201.566406 C 430.316406 202.304688 430.8125 204.019531 430.144531 205.414062 L 430.011719 205.707031 C 429.46875 206.664062 428.550781 207.203125 427.542969 207.238281 Z M 693.90625 190.886719 C 692.96875 190.921875 692.015625 190.453125 691.480469 189.679688 L 691.328125 189.398438 C 690.414062 188.132812 690.78125 186.316406 692.046875 185.476562 C 693.308594 184.566406 695.125 184.929688 695.964844 186.195312 L 696.191406 186.476562 C 697.105469 187.738281 696.738281 189.554688 695.472656 190.394531 C 694.910156 190.777344 694.410156 190.867188 693.90625 190.886719 Z M 434.859375 194.640625 C 434.28125 194.664062 433.703125 194.539062 433.257812 194.195312 C 431.929688 193.382812 431.574219 191.59375 432.390625 190.265625 L 432.59375 189.96875 C 433.410156 188.640625 435.199219 188.285156 436.527344 189.101562 C 437.855469 189.988281 438.207031 191.703125 437.394531 193.03125 L 437.1875 193.328125 C 436.640625 194.140625 435.722656 194.609375 434.859375 194.640625 Z M 685.113281 179.320312 C 684.25 179.355469 683.371094 179.027344 682.839844 178.324219 L 682.613281 178.046875 C 681.632812 176.855469 681.78125 175.050781 682.972656 174.066406 C 684.160156 173.085938 685.96875 173.234375 686.949219 174.425781 L 687.175781 174.703125 C 688.15625 175.894531 688.007812 177.699219 686.820312 178.679688 C 686.328125 179.058594 685.761719 179.296875 685.113281 179.320312 Z M 443.28125 182.792969 C 442.632812 182.820312 441.980469 182.625 441.457031 182.214844 C 440.199219 181.25 439.988281 179.457031 440.949219 178.269531 L 441.15625 177.972656 C 442.117188 176.710938 443.914062 176.574219 445.175781 177.535156 C 446.4375 178.496094 446.578125 180.292969 445.613281 181.554688 L 445.410156 181.851562 C 444.925781 182.371094 444.074219 182.765625 443.28125 182.792969 Z M 675.269531 168.589844 C 674.480469 168.617188 673.75 168.359375 673.148438 167.730469 L 672.925781 167.523438 C 671.800781 166.414062 671.808594 164.609375 672.917969 163.488281 C 674.03125 162.363281 675.832031 162.371094 676.953125 163.480469 L 677.253906 163.757812 C 678.375 164.871094 678.371094 166.671875 677.257812 167.792969 C 676.699219 168.246094 675.992188 168.5625 675.269531 168.589844 Z M 452.816406 171.769531 C 452.097656 171.796875 451.367188 171.539062 450.769531 170.984375 C 449.648438 169.871094 449.582031 168.144531 450.691406 166.949219 L 450.96875 166.652344 C 452.078125 165.527344 453.878906 165.460938 455.003906 166.574219 C 456.125 167.683594 456.191406 169.484375 455.082031 170.605469 L 454.871094 170.828125 C 454.246094 171.429688 453.539062 171.746094 452.816406 171.769531 Z M 664.523438 158.753906 C 663.878906 158.78125 663.148438 158.589844 662.625 158.105469 L 662.402344 157.898438 C 661.214844 156.933594 661.003906 155.140625 662.035156 153.875 C 663 152.6875 664.796875 152.472656 666.058594 153.507812 L 666.355469 153.714844 C 667.546875 154.75 667.753906 156.472656 666.722656 157.738281 C 666.027344 158.410156 665.316406 158.726562 664.523438 158.753906 Z M 463.324219 161.648438 C 462.53125 161.679688 461.65625 161.351562 461.050781 160.652344 C 460 159.464844 460.148438 157.660156 461.335938 156.679688 L 461.617188 156.453125 C 462.800781 155.398438 464.609375 155.546875 465.589844 156.734375 C 466.644531 157.921875 466.496094 159.730469 465.304688 160.710938 L 465.027344 160.9375 C 464.539062 161.386719 463.972656 161.625 463.324219 161.648438 Z M 652.882812 150.035156 C 652.308594 150.058594 651.726562 149.933594 651.207031 149.523438 L 650.910156 149.316406 C 649.582031 148.429688 649.300781 146.710938 650.113281 145.382812 C 651.003906 144.050781 652.792969 143.769531 654.050781 144.585938 L 654.34375 144.792969 C 655.675781 145.679688 655.960938 147.46875 655.070312 148.730469 C 654.59375 149.539062 653.746094 150.003906 652.882812 150.035156 Z M 474.734375 152.574219 C 473.796875 152.609375 472.917969 152.210938 472.308594 151.367188 C 471.398438 150.105469 471.691406 148.292969 472.953125 147.378906 L 473.234375 147.152344 C 474.496094 146.242188 476.308594 146.53125 477.222656 147.796875 C 478.132812 149.058594 477.839844 150.871094 476.578125 151.785156 L 476.296875 152.011719 C 475.808594 152.390625 475.238281 152.554688 474.734375 152.574219 Z M 640.417969 142.429688 C 639.914062 142.445312 639.40625 142.320312 638.964844 142.050781 L 638.667969 141.84375 C 637.269531 141.105469 636.773438 139.394531 637.515625 137.996094 C 638.253906 136.597656 639.964844 136.101562 641.363281 136.84375 L 641.660156 137.046875 C 643.054688 137.789062 643.554688 139.5 642.8125 140.898438 C 642.34375 141.851562 641.425781 142.390625 640.417969 142.429688 Z M 486.90625 144.625 C 485.898438 144.660156 484.867188 144.125 484.332031 143.207031 C 483.558594 141.867188 484 140.121094 485.339844 139.347656 L 485.621094 139.195312 C 486.960938 138.421875 488.710938 138.863281 489.480469 140.203125 C 490.25 141.542969 489.8125 143.289062 488.46875 144.0625 L 488.1875 144.214844 C 487.835938 144.445312 487.335938 144.609375 486.90625 144.625 Z M 627.347656 135.996094 C 626.917969 136.011719 626.554688 135.953125 626.113281 135.753906 L 625.820312 135.621094 C 624.359375 135.027344 623.71875 133.320312 624.3125 131.859375 C 624.90625 130.394531 626.613281 129.753906 628.074219 130.347656 L 628.367188 130.480469 C 629.832031 131.074219 630.472656 132.78125 629.878906 134.246094 C 629.414062 135.34375 628.429688 135.957031 627.347656 135.996094 Z M 499.769531 137.800781 C 498.691406 137.84375 497.585938 137.234375 497.113281 136.171875 C 496.484375 134.753906 497.070312 133.074219 498.484375 132.371094 L 498.839844 132.214844 C 500.257812 131.585938 501.9375 132.171875 502.640625 133.585938 C 503.269531 135.003906 502.683594 136.683594 501.265625 137.386719 L 500.984375 137.539062 C 500.484375 137.703125 500.128906 137.789062 499.769531 137.800781 Z M 613.75 130.808594 C 613.460938 130.820312 613.097656 130.761719 612.808594 130.699219 L 612.441406 130.570312 C 610.984375 130.121094 610.132812 128.496094 610.652344 126.960938 C 611.101562 125.503906 612.726562 124.648438 614.257812 125.167969 L 614.625 125.300781 C 616.082031 125.75 616.9375 127.375 616.488281 128.90625 C 615.953125 130.007812 614.902344 130.765625 613.75 130.808594 Z M 513.257812 132.253906 C 512.03125 132.296875 510.925781 131.546875 510.445312 130.339844 C 509.886719 128.847656 510.691406 127.230469 512.1875 126.742188 L 512.542969 126.65625 C 514.035156 126.097656 515.652344 126.902344 516.140625 128.398438 C 516.699219 129.890625 515.894531 131.503906 514.398438 131.992188 L 514.042969 132.078125 C 513.832031 132.230469 513.542969 132.242188 513.257812 132.253906 Z M 599.695312 127.011719 C 599.480469 127.019531 599.191406 127.027344 598.972656 126.964844 L 598.613281 126.90625 C 597.085938 126.601562 596.09375 125.054688 596.46875 123.527344 C 596.769531 122 598.320312 121.007812 599.847656 121.382812 L 600.210938 121.441406 C 601.738281 121.816406 602.730469 123.292969 602.355469 124.820312 C 602.039062 126.058594 600.921875 126.964844 599.695312 127.011719 Z M 527.15625 128.058594 C 525.859375 128.105469 524.671875 127.214844 524.335938 125.929688 C 523.921875 124.429688 524.871094 122.882812 526.371094 122.464844 L 526.65625 122.382812 C 528.152344 121.96875 529.773438 122.914062 530.117188 124.417969 C 530.535156 125.914062 529.582031 127.464844 528.085938 127.878906 L 527.726562 127.964844 C 527.585938 127.96875 527.371094 128.050781 527.15625 128.058594 Z M 585.332031 124.445312 C 585.1875 124.453125 585.042969 124.457031 584.894531 124.390625 L 584.53125 124.332031 C 583.011719 124.171875 581.878906 122.703125 582.035156 121.183594 C 582.269531 119.660156 583.667969 118.527344 585.1875 118.6875 L 585.550781 118.746094 C 587.070312 118.976562 588.207031 120.375 587.972656 121.898438 C 587.886719 123.414062 586.699219 124.394531 585.332031 124.445312 Z M 541.460938 125.144531 C 540.023438 125.199219 538.757812 124.164062 538.5625 122.730469 C 538.285156 121.15625 539.386719 119.746094 540.960938 119.472656 L 541.320312 119.386719 C 542.894531 119.109375 544.304688 120.210938 544.578125 121.785156 C 544.855469 123.363281 543.753906 124.773438 542.179688 125.046875 L 541.820312 125.132812 C 541.675781 125.066406 541.535156 125.144531 541.460938 125.144531 Z M 570.800781 123.332031 C 570.730469 123.332031 570.65625 123.335938 570.585938 123.339844 L 570.226562 123.351562 C 568.640625 123.339844 567.4375 122.015625 567.449219 120.429688 C 567.460938 118.84375 568.785156 117.640625 570.375 117.652344 L 570.734375 117.640625 C 572.320312 117.652344 573.523438 118.976562 573.507812 120.5625 C 573.492188 122.078125 572.3125 123.273438 570.800781 123.332031 Z M 555.890625 123.597656 C 554.378906 123.65625 553.039062 122.480469 552.980469 120.894531 C 552.847656 119.316406 554.097656 117.972656 555.605469 117.84375 L 555.964844 117.828125 C 557.472656 117.703125 558.890625 118.945312 558.945312 120.457031 C 559.078125 122.039062 557.828125 123.382812 556.320312 123.511719 L 555.890625 123.597656 C 555.964844 123.597656 555.964844 123.597656 555.890625 123.597656 Z M 555.890625 123.597656 " fill-opacity="1" fill-rule="nonzero"/></g></g></g></svg>