<svg width="1226" height="853" viewBox="0 0 1226 853" fill="none" xmlns="http://www.w3.org/2000/svg">
<rect width="1226" height="853" fill="#0A1828"/>
<g filter="url(#filter0_d_0_1)">
<ellipse cx="276" cy="421.5" rx="259" ry="235.5" fill="#064E49"/>
<path d="M534.5 421.5C534.5 551.243 418.811 656.5 276 656.5C133.189 656.5 17.5 551.243 17.5 421.5C17.5 291.757 133.189 186.5 276 186.5C418.811 186.5 534.5 291.757 534.5 421.5Z" stroke="black"/>
</g>
<path d="M1225 689V698" stroke="black"/>
<path d="M176.182 416H164.909C164.242 412.758 163.076 409.909 161.409 407.455C159.773 405 157.773 402.939 155.409 401.273C153.076 399.576 150.485 398.303 147.636 397.455C144.788 396.606 141.818 396.182 138.727 396.182C133.091 396.182 127.985 397.606 123.409 400.455C118.864 403.303 115.242 407.5 112.545 413.045C109.879 418.591 108.545 425.394 108.545 433.455C108.545 441.515 109.879 448.318 112.545 453.864C115.242 459.409 118.864 463.606 123.409 466.455C127.985 469.303 133.091 470.727 138.727 470.727C141.818 470.727 144.788 470.303 147.636 469.455C150.485 468.606 153.076 467.348 155.409 465.682C157.773 463.985 159.773 461.909 161.409 459.455C163.076 456.97 164.242 454.121 164.909 450.909H176.182C175.333 455.667 173.788 459.924 171.545 463.682C169.303 467.439 166.515 470.636 163.182 473.273C159.848 475.879 156.106 477.864 151.955 479.227C147.833 480.591 143.424 481.273 138.727 481.273C130.788 481.273 123.727 479.333 117.545 475.455C111.364 471.576 106.5 466.061 102.955 458.909C99.4091 451.758 97.6364 443.273 97.6364 433.455C97.6364 423.636 99.4091 415.152 102.955 408C106.5 400.848 111.364 395.333 117.545 391.455C123.727 387.576 130.788 385.636 138.727 385.636C143.424 385.636 147.833 386.318 151.955 387.682C156.106 389.045 159.848 391.045 163.182 393.682C166.515 396.288 169.303 399.47 171.545 403.227C173.788 406.955 175.333 411.212 176.182 416ZM194.398 480V386.909H225.852C233.125 386.909 239.095 388.152 243.761 390.636C248.428 393.091 251.883 396.47 254.125 400.773C256.367 405.076 257.489 409.97 257.489 415.455C257.489 420.939 256.367 425.803 254.125 430.045C251.883 434.288 248.443 437.621 243.807 440.045C239.17 442.439 233.246 443.636 226.034 443.636H200.58V433.455H225.67C230.64 433.455 234.64 432.727 237.67 431.273C240.731 429.818 242.943 427.758 244.307 425.091C245.701 422.394 246.398 419.182 246.398 415.455C246.398 411.727 245.701 408.47 244.307 405.682C242.913 402.894 240.686 400.742 237.625 399.227C234.564 397.682 230.519 396.909 225.489 396.909H205.67V480H194.398ZM238.216 438.182L261.125 480H248.034L225.489 438.182H238.216ZM354.818 433.455C354.818 443.273 353.045 451.758 349.5 458.909C345.955 466.061 341.091 471.576 334.909 475.455C328.727 479.333 321.667 481.273 313.727 481.273C305.788 481.273 298.727 479.333 292.545 475.455C286.364 471.576 281.5 466.061 277.955 458.909C274.409 451.758 272.636 443.273 272.636 433.455C272.636 423.636 274.409 415.152 277.955 408C281.5 400.848 286.364 395.333 292.545 391.455C298.727 387.576 305.788 385.636 313.727 385.636C321.667 385.636 328.727 387.576 334.909 391.455C341.091 395.333 345.955 400.848 349.5 408C353.045 415.152 354.818 423.636 354.818 433.455ZM343.909 433.455C343.909 425.394 342.561 418.591 339.864 413.045C337.197 407.5 333.576 403.303 329 400.455C324.455 397.606 319.364 396.182 313.727 396.182C308.091 396.182 302.985 397.606 298.409 400.455C293.864 403.303 290.242 407.5 287.545 413.045C284.879 418.591 283.545 425.394 283.545 433.455C283.545 441.515 284.879 448.318 287.545 453.864C290.242 459.409 293.864 463.606 298.409 466.455C302.985 469.303 308.091 470.727 313.727 470.727C319.364 470.727 324.455 469.303 329 466.455C333.576 463.606 337.197 459.409 339.864 453.864C342.561 448.318 343.909 441.515 343.909 433.455ZM390.682 480L365.227 386.909H376.682L396.136 462.727H397.045L416.864 386.909H429.591L449.409 462.727H450.318L469.773 386.909H481.227L455.773 480H444.136L423.591 405.818H422.864L402.318 480H390.682ZM524 480H495.273V386.909H525.273C534.303 386.909 542.03 388.773 548.455 392.5C554.879 396.197 559.803 401.515 563.227 408.455C566.652 415.364 568.364 423.636 568.364 433.273C568.364 442.97 566.636 451.318 563.182 458.318C559.727 465.288 554.697 470.652 548.091 474.409C541.485 478.136 533.455 480 524 480ZM506.545 470H523.273C530.97 470 537.348 468.515 542.409 465.545C547.47 462.576 551.242 458.348 553.727 452.864C556.212 447.379 557.455 440.848 557.455 433.273C557.455 425.758 556.227 419.288 553.773 413.864C551.318 408.409 547.652 404.227 542.773 401.318C537.894 398.379 531.818 396.909 524.545 396.909H506.545V470ZM587.273 480V386.909H643.091V396.909H598.545V428.364H638.909V438.364H598.545V480H587.273ZM723.489 386.909H734.761V448.545C734.761 454.909 733.261 460.591 730.261 465.591C727.292 470.561 723.095 474.485 717.67 477.364C712.246 480.212 705.883 481.636 698.58 481.636C691.277 481.636 684.913 480.212 679.489 477.364C674.064 474.485 669.852 470.561 666.852 465.591C663.883 460.591 662.398 454.909 662.398 448.545V386.909H673.67V447.636C673.67 452.182 674.67 456.227 676.67 459.773C678.67 463.288 681.519 466.061 685.216 468.091C688.943 470.091 693.398 471.091 698.58 471.091C703.761 471.091 708.216 470.091 711.943 468.091C715.67 466.061 718.519 463.288 720.489 459.773C722.489 456.227 723.489 452.182 723.489 447.636V386.909ZM831.091 386.909V480H820.182L769.455 406.909H768.545V480H757.273V386.909H768.182L819.091 460.182H820V386.909H831.091ZM882.375 480H853.648V386.909H883.648C892.678 386.909 900.405 388.773 906.83 392.5C913.254 396.197 918.178 401.515 921.602 408.455C925.027 415.364 926.739 423.636 926.739 433.273C926.739 442.97 925.011 451.318 921.557 458.318C918.102 465.288 913.072 470.652 906.466 474.409C899.86 478.136 891.83 480 882.375 480ZM864.92 470H881.648C889.345 470 895.723 468.515 900.784 465.545C905.845 462.576 909.617 458.348 912.102 452.864C914.587 447.379 915.83 440.848 915.83 433.273C915.83 425.758 914.602 419.288 912.148 413.864C909.693 408.409 906.027 404.227 901.148 401.318C896.269 398.379 890.193 396.909 882.92 396.909H864.92V470ZM945.648 386.909H959.102L990.739 464.182H991.83L1023.47 386.909H1036.92V480H1026.38V409.273H1025.47L996.375 480H986.193L957.102 409.273H956.193V480H945.648V386.909ZM1059.52 480V386.909H1115.7V396.909H1070.8V428.364H1112.8V438.364H1070.8V470H1116.43V480H1059.52Z" fill="white"/>
<defs>
<filter id="filter0_d_0_1" x="0" y="0" width="900" height="853" filterUnits="userSpaceOnUse" color-interpolation-filters="sRGB">
<feFlood flood-opacity="0" result="BackgroundImageFix"/>
<feColorMatrix in="SourceAlpha" type="matrix" values="0 0 0 0 0 0 0 0 0 0 0 0 0 0 0 0 0 0 127 0" result="hardAlpha"/>
<feMorphology radius="180" operator="dilate" in="SourceAlpha" result="effect1_dropShadow_0_1"/>
<feOffset dx="174" dy="5"/>
<feGaussianBlur stdDeviation="5.5"/>
<feComposite in2="hardAlpha" operator="out"/>
<feColorMatrix type="matrix" values="0 0 0 0 0 0 0 0 0 0 0 0 0 0 0 0 0 0 0.25 0"/>
<feBlend mode="normal" in2="BackgroundImageFix" result="effect1_dropShadow_0_1"/>
<feBlend mode="normal" in="SourceGraphic" in2="effect1_dropShadow_0_1" result="shape"/>
</filter>
</defs>
</svg>
